<svg xmlns="http://www.w3.org/2000/svg" width="368" height="24.17" viewBox="0 0 368 24.17"><g id="obg-logo-white" transform="translate(-16 -16.3)"><path id="Path_1" data-name="Path 1" d="M40.837,28.385v-.067a11.687,11.687,0,0,0-.935-4.674,10.963,10.963,0,0,0-2.571-3.806,11.814,11.814,0,0,0-3.906-2.571,12.549,12.549,0,0,0-4.974-.968,12.792,12.792,0,0,0-5.007.968,11.852,11.852,0,0,0-6.51,6.443A11.687,11.687,0,0,0,16,28.385v.067a12.31,12.31,0,0,0,.9,4.707,12.094,12.094,0,0,0,2.571,3.806,13.285,13.285,0,0,0,13.887,2.571A12.055,12.055,0,0,0,39.9,33.092,11.927,11.927,0,0,0,40.837,28.385Zm-5.375.067a7.569,7.569,0,0,1-.534,2.838,7.052,7.052,0,0,1-1.435,2.3,6.316,6.316,0,0,1-2.2,1.569,7.024,7.024,0,0,1-2.838.568,7.108,7.108,0,0,1-2.871-.568,7.623,7.623,0,0,1-2.237-1.6,7.434,7.434,0,0,1-1.469-2.337,8.014,8.014,0,0,1-.5-2.838v-.067a7.516,7.516,0,0,1,1.936-5.141,6.754,6.754,0,0,1,2.2-1.569,7.108,7.108,0,0,1,2.871-.568,6.979,6.979,0,0,1,6.543,4.507,7.569,7.569,0,0,1,.534,2.838Z" fill="#fff"></path><path id="Path_2" data-name="Path 2" d="M96.646,40.484V17.116H91.571V31.5L80.622,17.116h-4.74V40.484h5.074V25.629L92.272,40.484Z" transform="translate(-30.484 -0.415)" fill="#fff"></path><path id="Path_3" data-name="Path 3" d="M147.4,40.484V35.911H134.712V31h11.016V26.43H134.712v-4.74H147.23V17.116H129.6V40.484Z" transform="translate(-57.832 -0.415)" fill="#fff"></path><path id="Path_4" data-name="Path 4" d="M215.409,34.075v-.067a5.259,5.259,0,0,0-1.168-3.639,7.828,7.828,0,0,0-3.2-2.1,6.034,6.034,0,0,0,1.168-.8,4.894,4.894,0,0,0,.968-1.068,5.076,5.076,0,0,0,.668-1.4,5.373,5.373,0,0,0,.268-1.769v-.067a5.324,5.324,0,0,0-2.07-4.407,8.778,8.778,0,0,0-5.642-1.636H195.546V40.484h11.116a14.739,14.739,0,0,0,3.572-.4,8.094,8.094,0,0,0,2.771-1.2,5.257,5.257,0,0,0,1.77-2A5.925,5.925,0,0,0,215.409,34.075ZM209,24.093a2.055,2.055,0,0,1-1,1.9,5.489,5.489,0,0,1-2.7.568h-4.741V21.623h5.074a4.2,4.2,0,0,1,2.5.634A2.014,2.014,0,0,1,209,24.026Zm1.3,9.347a2.156,2.156,0,0,1-.968,1.936,5.053,5.053,0,0,1-2.671.6h-6.109V30.836H206.5a4.762,4.762,0,0,1,2.9.7,2.16,2.16,0,0,1,.9,1.836Z" transform="translate(-91.401 -0.415)" fill="#fff"></path><path id="Path_5" data-name="Path 5" d="M264.817,40.484l-5.709-8.346a7.97,7.97,0,0,0,3.605-2.6,7.338,7.338,0,0,0,1.4-4.64v-.067a7.13,7.13,0,0,0-2.337-5.675,9.455,9.455,0,0,0-6.476-2.036H244.62V40.484h5.141V33.006H253.8l5.008,7.478Zm-5.909-15.323a3.029,3.029,0,0,1-1.035,2.4,4.2,4.2,0,0,1-2.9.9h-5.208v-6.71h5.108a4.718,4.718,0,0,1,2.971.835,2.982,2.982,0,0,1,1.068,2.5Z" transform="translate(-116.383 -0.415)" fill="#fff"></path><path id="Path_6" data-name="Path 6" d="M316.489,28.385v-.067a11.681,11.681,0,0,0-.935-4.674,10.961,10.961,0,0,0-2.57-3.806,11.811,11.811,0,0,0-3.906-2.571A12.548,12.548,0,0,0,304.1,16.3a12.792,12.792,0,0,0-5.008.968,11.852,11.852,0,0,0-6.51,6.443,11.689,11.689,0,0,0-.935,4.674v.067a12.31,12.31,0,0,0,.9,4.707,12.1,12.1,0,0,0,2.57,3.806,13.285,13.285,0,0,0,13.888,2.571,12.055,12.055,0,0,0,6.543-6.443A11.921,11.921,0,0,0,316.489,28.385Zm-5.375.067a7.563,7.563,0,0,1-.534,2.838,7.046,7.046,0,0,1-1.436,2.3,6.316,6.316,0,0,1-2.2,1.569,7.022,7.022,0,0,1-2.838.568,7.11,7.11,0,0,1-2.871-.568,7.63,7.63,0,0,1-2.237-1.6,7.444,7.444,0,0,1-1.469-2.337,8.015,8.015,0,0,1-.5-2.838v-.067a7.515,7.515,0,0,1,1.936-5.141,6.761,6.761,0,0,1,2.2-1.569,7.109,7.109,0,0,1,2.871-.568,6.979,6.979,0,0,1,6.543,4.507,7.563,7.563,0,0,1,.534,2.838Z" transform="translate(-140.326)" fill="#fff"></path><path id="Path_7" data-name="Path 7" d="M372.8,40.484l-9.948-13.453,9.514-9.915h-6.209l-9.481,10.215V17.116h-5.141V40.484h5.141V33.34l2.7-2.8,7.244,9.948Z" transform="translate(-170.81 -0.415)" fill="#fff"></path><path id="Path_8" data-name="Path 8" d="M419,40.484V35.911H406.314V31H417.33V26.43H406.314v-4.74h12.519V17.116H401.206V40.484Z" transform="translate(-196.096 -0.415)" fill="#fff"></path><path id="Path_9" data-name="Path 9" d="M466.957,40.484l-5.708-8.346a7.964,7.964,0,0,0,3.605-2.6,7.338,7.338,0,0,0,1.4-4.64v-.067a7.128,7.128,0,0,0-2.337-5.675,9.454,9.454,0,0,0-6.476-2.036H446.76V40.484H451.9V33.006h4.039l5.008,7.478Zm-5.909-15.323a3.027,3.027,0,0,1-1.035,2.4,4.2,4.2,0,0,1-2.9.9H451.9v-6.71h5.108a4.717,4.717,0,0,1,2.971.835,2.981,2.981,0,0,1,1.068,2.5Z" transform="translate(-219.287 -0.415)" fill="#fff"></path><path id="Path_10" data-name="Path 10" d="M536.447,36.764V26.615H526.3v4.44h5.174v3.338a8.133,8.133,0,0,1-4.841,1.4,7.494,7.494,0,0,1-2.871-.534,7.13,7.13,0,0,1-2.237-1.569,7.425,7.425,0,0,1-1.469-2.337,8.585,8.585,0,0,1-.5-2.971v-.067a7.746,7.746,0,0,1,.5-2.8,7.339,7.339,0,0,1,1.435-2.3,6.978,6.978,0,0,1,2.137-1.569,5.949,5.949,0,0,1,2.637-.6,9.381,9.381,0,0,1,1.836.167,7.752,7.752,0,0,1,1.536.467,8.426,8.426,0,0,1,1.4.734,13.088,13.088,0,0,1,1.335,1l3.238-3.906a15.469,15.469,0,0,0-1.869-1.369,11.123,11.123,0,0,0-2.07-1,12.656,12.656,0,0,0-2.4-.6,15.737,15.737,0,0,0-2.838-.234,12.221,12.221,0,0,0-4.907.968,11.636,11.636,0,0,0-3.873,2.6,11.819,11.819,0,0,0-3.472,8.513v.067a12.576,12.576,0,0,0,.9,4.807,11.441,11.441,0,0,0,2.5,3.806,11.727,11.727,0,0,0,3.872,2.5,13.453,13.453,0,0,0,5.008.9A14.183,14.183,0,0,0,532.14,39.4,17.39,17.39,0,0,0,536.447,36.764Z" transform="translate(-253.608)" fill="#fff"></path><path id="Path_11" data-name="Path 11" d="M589.809,40.484,584.1,32.138a7.97,7.97,0,0,0,3.605-2.6,7.338,7.338,0,0,0,1.4-4.64v-.067a7.13,7.13,0,0,0-2.337-5.675,9.455,9.455,0,0,0-6.476-2.036H569.612V40.484h5.141V33.006h4.039l5.007,7.478ZM583.9,25.161a3.029,3.029,0,0,1-1.035,2.4,4.2,4.2,0,0,1-2.9.9h-5.208v-6.71h5.108a4.717,4.717,0,0,1,2.971.835,2.981,2.981,0,0,1,1.068,2.5Z" transform="translate(-281.827 -0.415)" fill="#fff"></path><path id="Path_12" data-name="Path 12" d="M641.482,28.385v-.067a11.689,11.689,0,0,0-.935-4.674,10.968,10.968,0,0,0-2.57-3.806,11.821,11.821,0,0,0-3.906-2.571A12.549,12.549,0,0,0,629.1,16.3a12.792,12.792,0,0,0-5.007.968,11.852,11.852,0,0,0-6.51,6.443,11.681,11.681,0,0,0-.935,4.674v.067a12.31,12.31,0,0,0,.9,4.707,12.087,12.087,0,0,0,2.57,3.806A13.285,13.285,0,0,0,634,39.535a12.056,12.056,0,0,0,6.543-6.443A11.929,11.929,0,0,0,641.482,28.385Zm-5.375.067a7.571,7.571,0,0,1-.534,2.838,7.053,7.053,0,0,1-1.435,2.3,6.316,6.316,0,0,1-2.2,1.569,7.024,7.024,0,0,1-2.838.568,7.107,7.107,0,0,1-2.871-.568,7.618,7.618,0,0,1-2.237-1.6,7.424,7.424,0,0,1-1.469-2.337,8.014,8.014,0,0,1-.5-2.838v-.067a7.518,7.518,0,0,1,1.936-5.141,6.759,6.759,0,0,1,2.2-1.569,7.108,7.108,0,0,1,2.871-.568,6.979,6.979,0,0,1,6.543,4.507,7.571,7.571,0,0,1,.534,2.838Z" transform="translate(-305.77)" fill="#fff"></path><path id="Path_13" data-name="Path 13" d="M696.142,30.3V17.116H691V30.5a5.892,5.892,0,0,1-1.335,4.206,4.872,4.872,0,0,1-3.706,1.4,4.811,4.811,0,0,1-3.706-1.435,6.255,6.255,0,0,1-1.335-4.34V17.116h-5.141V30.469q0,5.174,2.7,7.778a10.238,10.238,0,0,0,7.411,2.6,13.355,13.355,0,0,0,4.24-.634,8.2,8.2,0,0,0,5.275-5.275A13.276,13.276,0,0,0,696.142,30.3Z" transform="translate(-335.872 -0.415)" fill="#fff"></path><path id="Path_14" data-name="Path 14" d="M746.418,25.261v-.067a8.164,8.164,0,0,0-.634-3.272,6.911,6.911,0,0,0-1.769-2.571,7.587,7.587,0,0,0-2.8-1.636,10.8,10.8,0,0,0-3.739-.6h-9.548V40.484h5.141v-7.01h3.906a12.96,12.96,0,0,0,3.672-.5,8.771,8.771,0,0,0,3-1.569,7.207,7.207,0,0,0,2.036-2.571A8.186,8.186,0,0,0,746.418,25.261Zm-5.208.1a3.4,3.4,0,0,1-1.068,2.537,4.223,4.223,0,0,1-3,1h-4.073V21.756h3.973a4.663,4.663,0,0,1,3.038.9,3.165,3.165,0,0,1,1.135,2.637Z" transform="translate(-362.418 -0.415)" fill="#fff"></path></g></svg>