<svg xmlns="http://www.w3.org/2000/svg" width="473.566" height="210.147" viewBox="0 0 473.566 210.147"><g id="vyb-logo" transform="translate(-0.2 -14.9)"><g id="Group_1" data-name="Group 1" transform="translate(0.2 14.9)"><path id="Path_15" data-name="Path 15" d="M181,33.8a29.685,29.685,0,0,1,19.367,8.761,30.578,30.578,0,0,1,8.761,21.211V122.1A29.665,29.665,0,0,1,181,151.846,59.07,59.07,0,0,0,181,33.8" transform="translate(235.849 9.775)" fill="#fff"></path><path id="Path_16" data-name="Path 16" d="M218.584,58.475h-.231a57.341,57.341,0,0,0-29.281,7.839V14.9H150.8s8.531,1.844,8.531,15.678V51.789h0v65.94a59.137,59.137,0,0,0,59.023,59.023h.231a30.013,30.013,0,0,1-29.742-29.973V88.448a30.164,30.164,0,0,1,29.742-29.973" transform="translate(196.42 -14.9)" fill="#fff"></path><path id="Path_17" data-name="Path 17" d="M94.959,121.643,44.237,33.8H.2s9.222.692,16.37,12.45h0L76.745,150.693l2.536,4.15,1.844,3L138.3,33.8h-3.228L94.959,121.643Z" transform="translate(-0.2 9.775)" fill="#fff"></path><path id="Path_18" data-name="Path 18" d="M211.676,33.8h0l-8.531,18.675-31.817,69.167L120.606,34.031H76.8s9.222.692,16.37,12.45h0l61.1,105.6,1.844,3-10.145,22.134c0,.231-6.917,15.908-20.52,19.6a28.207,28.207,0,0,1-3.919.692h-2.306a19.644,19.644,0,0,1-9.683-2.767c4.381.692,7.608,0,8.531-.461h.231A21.65,21.65,0,1,0,88.558,174.21a17.192,17.192,0,0,0,.922,5.995h0v.231a24.192,24.192,0,0,0,3.228,6.456,27.44,27.44,0,0,0,18.675,12.681h0a40.741,40.741,0,0,0,10.375.692,15.976,15.976,0,0,0,4.611-.692c.461-.231.692-.231,1.153-.461h.231c14.064-4.611,20.75-20.059,20.981-20.75l46.8-102.6h0l15.908-34.814h0s3.228-6.917,5.995-6.917l-5.764-.231Z" transform="translate(99.807 9.775)" fill="#fff"></path></g></g></svg>