<svg xmlns="http://www.w3.org/2000/svg" xmlns:xlink="http://www.w3.org/1999/xlink" width="200" height="200" viewBox="0 0 200 200"><defs><clipPath id="clip-_Business_Friendly"><rect width="200" height="200"></rect></clipPath></defs><g id="_Business_Friendly" data-name=" Business Friendly" clip-path="url(#clip-_Business_Friendly)"><path id="relationship_14604935" d="M108.887,75.848a1.7,1.7,0,0,1,3.018-1.545,16.525,16.525,0,0,0,29.383,0,1.7,1.7,0,0,1,3.018,1.545,19.882,19.882,0,0,1-35.419,0Zm29.651-23.665a1.7,1.7,0,0,1,3.4,0v4.283a1.7,1.7,0,0,1-3.4,0Zm-28.8,0a1.7,1.7,0,0,1,3.4,0v4.283a1.7,1.7,0,0,1-3.4,0Zm17.1-30.013A43.682,43.682,0,1,1,83.162,65.852,43.672,43.672,0,0,1,126.844,22.17Zm28.48,15.206a40.277,40.277,0,1,0,0,56.961A40.268,40.268,0,0,0,155.324,37.376Zm35.164,63.657-15.832,5.551a3.776,3.776,0,0,0-2.3,4.8l18.523,52.857c.724,1.882.843,3.619,2.75,4.525a3.727,3.727,0,0,0,2.882.17l15.832-5.551a3.771,3.771,0,0,0,2.3-4.8l-19.357-55.245a3.773,3.773,0,0,0-4.8-2.307Zm-16.956,2.341,15.713-5.5a7.219,7.219,0,0,1,9.306,4.479l19.306,55.126a7.181,7.181,0,0,1-4.393,9.123l-15.845,5.551a7.181,7.181,0,0,1-9.123-4.393l-.145-.421-12.222,6.373c2.184,6.169-5.441,14.687-12.371,13.891.724,6.445-6.373,13.5-12.805,12.708.6,7.808-11.222,15.943-18.127,9.762-.362-.315-.915-.8-1.545-1.35-1.558,7.024-12.61,12.516-20.766,4.342-7.88-7.867-12.984-13.176-17.786-18.161-5.649-5.875-10.886-11.307-20.37-20.622l-7.616-5.5a7.178,7.178,0,0,1-8.676,3.38L40.22,166.6a7.185,7.185,0,0,1-4.381-9.123l19.306-55.126a7.216,7.216,0,0,1,9.306-4.479l15.7,5.5a7.205,7.205,0,0,1,4.683,8.063l38.11,8.425c4.321-1.907,19.391-4.249,32.171-6.241,5.275-.809,10.162-1.571,13.734-2.209a7.2,7.2,0,0,1,4.683-8.042Zm13.687,60.711L169.9,114.669c-10.558,1.92-42.222,6.156-45.807,8.425v-.013l-.328.264v-.013a3.832,3.832,0,0,1-.617.473L101.22,136.836c-3.112,1.86-2.137,5.224-.183,7.578a13.23,13.23,0,0,0,3.908,3.138c5.2,2.835,13.312,3.329,22.312-2.763s16.884-3.716,25.087,4.393l21.831,21.7Zm-103.431-49.4-17.8,50.8,8.676,6.275c17.957,17.654,20.839,21.482,38.255,38.893,7.7,7.688,17.68-.856,14.542-5.539l-14.142-13.538a1.7,1.7,0,0,1,2.354-2.439l15.977,15.292a1.752,1.752,0,0,1,.2.23l3.176,2.81v.013c3.934,3.427,10.136-.289,11.971-4.261a4.422,4.422,0,0,0-.736-5.275L130.3,182.668a1.7,1.7,0,0,1,2.354-2.448l15.977,15.287c5.334,5.189,15.445-5.249,10.341-10.307a.135.135,0,0,0-.06-.06l-16-15.326a1.7,1.7,0,0,1,2.354-2.448l16,15.326a.445.445,0,0,1,.119.1c5.177,5.189,14.734-5.177,10.766-9.149L149.973,151.6c-7.012-6.965-13.248-9.11-20.8-3.993-10.255,6.939-19.694,6.275-25.837,2.933-3.525-1.92-6.637-5.13-7.361-8.893a6.974,6.974,0,0,1,3.538-7.722l19.319-11.49Zm-4.742-8.1L63.2,101.033a3.785,3.785,0,0,0-4.8,2.3L39.041,158.581a3.781,3.781,0,0,0,2.3,4.8l15.845,5.551a3.774,3.774,0,0,0,4.8-2.3l19.357-55.245A3.785,3.785,0,0,0,79.045,106.585Z" transform="translate(-26.627 -19.67)" fill="#fff" stroke="#fff" stroke-width="3"></path></g></svg>