<svg xmlns="http://www.w3.org/2000/svg" xmlns:xlink="http://www.w3.org/1999/xlink" width="200" height="200" viewBox="0 0 200 200"><defs><clipPath id="clip-Expert_Insights"><rect width="200" height="200"></rect></clipPath></defs><g id="Expert_Insights" data-name="Expert Insights" clip-path="url(#clip-Expert_Insights)"><g id="apartment_10880416" transform="translate(13)"><g id="Group_1" data-name="Group 1" transform="translate(16.5 75)"><path id="Path_1" data-name="Path 1" d="M32,68A24.911,24.911,0,0,1,7,43,25.025,25.025,0,0,1,32,18a23.983,23.983,0,0,1,5.05.508A24.388,24.388,0,0,1,42,20.1a25.016,25.016,0,0,1,.021,45.837A24.216,24.216,0,0,1,36.987,67.5,23.8,23.8,0,0,1,32,68Zm0-41.667a16.686,16.686,0,0,0-6.646,31.983,17.594,17.594,0,0,0,9.929,1.029,16.153,16.153,0,0,0,3.375-1.038A16.791,16.791,0,0,0,48.667,43,16.763,16.763,0,0,0,35.346,26.667,15.788,15.788,0,0,0,32,26.333Z" transform="translate(-7 -18)" fill="#fff"></path></g><g id="Group_2" data-name="Group 2" transform="translate(29 125)"><path id="Path_2" data-name="Path 2" d="M22.5,88.333a4.155,4.155,0,0,1-2.946-1.221l-8.333-8.333A4.148,4.148,0,0,1,10,75.833V34.167a4.167,4.167,0,0,1,8.333,0A4.168,4.168,0,0,0,22.5,38.333a4.1,4.1,0,0,0,2.058-.554l2.108,2.758v-.262l-.329-.633-1.517-2,1.154,1.3-.8-1.542,1.5,2.329v-.317l-1.429-2.121.475-.488a8.98,8.98,0,0,1,.567-.858,4.617,4.617,0,0,0,.388-1.779,4.167,4.167,0,1,1,8.333,0V75.833a4.148,4.148,0,0,1-1.221,2.946l-8.333,8.333A4.155,4.155,0,0,1,22.5,88.333ZM18.333,74.108,22.5,78.275l4.167-4.167V45.962a13.026,13.026,0,0,1-8.333-.008Z" transform="translate(-10 -30)" fill="#fff"></path></g><g id="Group_3" data-name="Group 3" transform="translate(4 125)"><path id="Path_3" data-name="Path 3" d="M74.833,105H8.167A4.163,4.163,0,0,1,4,100.833V46.667A16.683,16.683,0,0,1,20.667,30h12.5a4.163,4.163,0,0,1,4.167,4.167V74.108L41.5,78.275l4.167-4.167V34.167A4.163,4.163,0,0,1,49.833,30h12.5A16.683,16.683,0,0,1,79,46.667v54.167A4.163,4.163,0,0,1,74.833,105Zm-62.5-8.333H70.667v-50a8.342,8.342,0,0,0-8.333-8.333H54v37.5a4.148,4.148,0,0,1-1.221,2.946l-8.333,8.333a4.162,4.162,0,0,1-5.892,0l-8.333-8.333A4.148,4.148,0,0,1,29,75.833v-37.5H20.667a8.342,8.342,0,0,0-8.333,8.333Z" transform="translate(-4 -30)" fill="#fff"></path></g><g id="Group_4" data-name="Group 4" transform="translate(45.667)"><path id="Path_4" data-name="Path 4" d="M134.833,162.5H43.167A4.163,4.163,0,0,1,39,158.333V141.667a8.342,8.342,0,0,0-8.333-8.333h-12.5A4.163,4.163,0,0,1,14,129.167V119.125a4.16,4.16,0,0,1,2.479-3.808A16.8,16.8,0,0,0,26.5,100a16.584,16.584,0,0,0-9.983-15.258A4.163,4.163,0,0,1,14,80.917V4.167A4.163,4.163,0,0,1,18.167,0H134.833A4.163,4.163,0,0,1,139,4.167V158.333A4.163,4.163,0,0,1,134.833,162.5Zm-87.5-8.333h83.333V8.333H22.333V78.35A24.932,24.932,0,0,1,34.833,100a25.111,25.111,0,0,1-12.5,21.667V125h8.333a16.683,16.683,0,0,1,16.667,16.667Z" transform="translate(-14)" fill="#fff"></path></g><g id="Group_5" data-name="Group 5" transform="translate(91.5 120.833)"><path id="Path_5" data-name="Path 5" d="M54.167,70.667h-25A4.163,4.163,0,0,1,25,66.5V33.167A4.163,4.163,0,0,1,29.167,29h25a4.163,4.163,0,0,1,4.167,4.167V66.5A4.163,4.163,0,0,1,54.167,70.667ZM33.333,62.333H50v-25H33.333Z" transform="translate(-25 -29)" fill="#fff"></path></g><g id="Group_6" data-name="Group 6" transform="translate(45.667 16.667)"><path id="Path_6" data-name="Path 6" d="M134.833,12.333H18.167a4.167,4.167,0,0,1,0-8.333H134.833a4.167,4.167,0,1,1,0,8.333Z" transform="translate(-14 -4)" fill="#fff"></path></g><g id="Group_7" data-name="Group 7" transform="translate(74.833 79.167)"><path id="Path_7" data-name="Path 7" d="M46,48.167H25.167A4.163,4.163,0,0,1,21,44V23.167A4.163,4.163,0,0,1,25.167,19H46a4.163,4.163,0,0,1,4.167,4.167V44A4.163,4.163,0,0,1,46,48.167ZM29.333,39.833h12.5v-12.5h-12.5Z" transform="translate(-21 -19)" fill="#fff"></path></g><g id="Group_8" data-name="Group 8" transform="translate(112.333 79.167)"><path id="Path_8" data-name="Path 8" d="M55,48.167H34.167A4.163,4.163,0,0,1,30,44V23.167A4.163,4.163,0,0,1,34.167,19H55a4.163,4.163,0,0,1,4.167,4.167V44A4.163,4.163,0,0,1,55,48.167ZM38.333,39.833h12.5v-12.5h-12.5Z" transform="translate(-30 -19)" fill="#fff"></path></g><g id="Group_9" data-name="Group 9" transform="translate(74.833 37.5)"><path id="Path_9" data-name="Path 9" d="M46,38.167H25.167A4.163,4.163,0,0,1,21,34V13.167A4.163,4.163,0,0,1,25.167,9H46a4.163,4.163,0,0,1,4.167,4.167V34A4.163,4.163,0,0,1,46,38.167ZM29.333,29.833h12.5v-12.5h-12.5Z" transform="translate(-21 -9)" fill="#fff"></path></g><g id="Group_10" data-name="Group 10" transform="translate(112.333 37.5)"><path id="Path_10" data-name="Path 10" d="M55,38.167H34.167A4.163,4.163,0,0,1,30,34V13.167A4.163,4.163,0,0,1,34.167,9H55a4.163,4.163,0,0,1,4.167,4.167V34A4.163,4.163,0,0,1,55,38.167ZM38.333,29.833h12.5v-12.5h-12.5Z" transform="translate(-30 -9)" fill="#fff"></path></g><path id="Path_11" data-name="Path 11" d="M33.129,28.279s0,0-.008,0l-.013-.013a3.581,3.581,0,0,0-.442-.213,4.385,4.385,0,0,0-.487-.237.85.85,0,0,0-.1-.021,4.183,4.183,0,0,0-1.925-.146c-.042.008-.079.025-.121.033a4,4,0,0,0-.838.242,16.18,16.18,0,0,1-2.458.813l-.154.037a18.011,18.011,0,0,1-2.321.4c-.1.012-.2.029-.3.037-.5.046-.983.033-1.475.038s-.971.008-1.475-.038c-.1-.008-.2-.029-.3-.037a18.013,18.013,0,0,1-2.321-.4l-.15-.037a17.332,17.332,0,0,1-2.458-.812,3.986,3.986,0,0,0-.829-.237c-.042-.008-.083-.029-.125-.038a4.091,4.091,0,0,0-1.929.146c-.029.008-.062.008-.1.021a4.445,4.445,0,0,0-.492.237,3.527,3.527,0,0,0-.437.213l-.013.013s0,0-.008,0A4.162,4.162,0,0,0,10,31.754V41.8a12.5,12.5,0,1,0,25,0V31.754a4.15,4.15,0,0,0-1.871-3.475ZM26.667,41.8a4.167,4.167,0,1,1-8.333,0V37.283a25.4,25.4,0,0,0,4.167.338,25.86,25.86,0,0,0,4.167-.338Z" transform="translate(19 87.371)" fill="#fff"></path></g></g></svg>