<svg xmlns="http://www.w3.org/2000/svg" xmlns:xlink="http://www.w3.org/1999/xlink" width="200" height="200" viewBox="0 0 200 200"><defs><clipPath id="clip-Explore_Top_Properties"><rect width="200" height="200"></rect></clipPath></defs><g id="Explore_Top_Properties" data-name="Explore Top Properties" clip-path="url(#clip-Explore_Top_Properties)"><g id="online-booking_13061515" transform="translate(3 -16.933)"><g id="Group_11" data-name="Group 11" transform="translate(0 31.933)"><path id="Path_26" data-name="Path 26" d="M154.152,177.673h1.05a2.856,2.856,0,0,0,0-5.713h-1.05a2.856,2.856,0,1,0,0,5.713Z" transform="translate(-93.673 -118.629)" fill="#fff" stroke="#fff" stroke-width="1.4"></path><path id="Path_27" data-name="Path 27" d="M118.308,177.673h1.05a2.856,2.856,0,1,0,0-5.713h-1.05a2.856,2.856,0,1,0,0,5.713Z" transform="translate(-71.481 -118.629)" fill="#fff" stroke="#fff" stroke-width="1.4"></path><path id="Path_28" data-name="Path 28" d="M82.464,177.673h1.05a2.856,2.856,0,1,0,0-5.713h-1.05a2.856,2.856,0,1,0,0,5.713Z" transform="translate(-49.288 -118.629)" fill="#fff" stroke="#fff" stroke-width="1.4"></path><path id="Path_29" data-name="Path 29" d="M154.152,214.895h1.05a2.856,2.856,0,0,0,0-5.713h-1.05a2.856,2.856,0,0,0,0,5.713Z" transform="translate(-93.673 -141.675)" fill="#fff" stroke="#fff" stroke-width="1.4"></path><path id="Path_30" data-name="Path 30" d="M118.308,214.895h1.05a2.856,2.856,0,0,0,0-5.713h-1.05a2.856,2.856,0,1,0,0,5.713Z" transform="translate(-71.481 -141.675)" fill="#fff" stroke="#fff" stroke-width="1.4"></path><path id="Path_31" data-name="Path 31" d="M82.464,214.895h1.05a2.856,2.856,0,1,0,0-5.713h-1.05a2.856,2.856,0,1,0,0,5.713Z" transform="translate(-49.288 -141.675)" fill="#fff" stroke="#fff" stroke-width="1.4"></path><path id="Path_32" data-name="Path 32" d="M154.152,252.118h1.05a2.856,2.856,0,0,0,0-5.713h-1.05a2.856,2.856,0,0,0,0,5.713Z" transform="translate(-93.673 -164.721)" fill="#fff" stroke="#fff" stroke-width="1.4"></path><path id="Path_33" data-name="Path 33" d="M118.308,252.118h1.05a2.856,2.856,0,0,0,0-5.713h-1.05a2.856,2.856,0,0,0,0,5.713Z" transform="translate(-71.481 -164.721)" fill="#fff" stroke="#fff" stroke-width="1.4"></path><path id="Path_34" data-name="Path 34" d="M82.464,252.118h1.05a2.856,2.856,0,0,0,0-5.713h-1.05a2.856,2.856,0,0,0,0,5.713Z" transform="translate(-49.288 -164.721)" fill="#fff" stroke="#fff" stroke-width="1.4"></path><path id="Path_35" data-name="Path 35" d="M154.152,289.34h1.05a2.856,2.856,0,0,0,0-5.713h-1.05a2.856,2.856,0,1,0,0,5.713Z" transform="translate(-93.673 -187.767)" fill="#fff" stroke="#fff" stroke-width="1.4"></path><path id="Path_36" data-name="Path 36" d="M118.308,289.34h1.05a2.856,2.856,0,1,0,0-5.713h-1.05a2.856,2.856,0,1,0,0,5.713Z" transform="translate(-71.481 -187.767)" fill="#fff" stroke="#fff" stroke-width="1.4"></path><path id="Path_37" data-name="Path 37" d="M82.464,289.34h1.05a2.856,2.856,0,1,0,0-5.713h-1.05a2.856,2.856,0,1,0,0,5.713Z" transform="translate(-49.288 -187.767)" fill="#fff" stroke="#fff" stroke-width="1.4"></path><path id="Path_38" data-name="Path 38" d="M431.583,251.149a2.857,2.857,0,0,0-3.919.979l-6.214,10.352-3.51-4.765a2.857,2.857,0,0,0-4.6,3.389l6.052,8.216a2.857,2.857,0,0,0,2.3,1.162c.045,0,.09,0,.135,0a2.857,2.857,0,0,0,2.315-1.383l8.42-14.027A2.857,2.857,0,0,0,431.583,251.149Z" transform="translate(-255.57 -167.406)" fill="#fff" stroke="#fff" stroke-width="1.4"></path><path id="Path_39" data-name="Path 39" d="M260.081,141.829h75.256a2.856,2.856,0,0,0,0-5.713H260.081a2.856,2.856,0,0,0,0,5.713Z" transform="translate(-159.258 -96.437)" fill="#fff" stroke="#fff" stroke-width="1.4"></path><path id="Path_40" data-name="Path 40" d="M457.143,66.522a2.856,2.856,0,0,0,0-5.713h-.328a2.856,2.856,0,0,0,0,5.713Z" transform="translate(-281.064 -49.811)" fill="#fff" stroke="#fff" stroke-width="1.4"></path><path id="Path_41" data-name="Path 41" d="M432.574,66.522a2.856,2.856,0,0,0,0-5.713h-.328a2.856,2.856,0,0,0,0,5.713Z" transform="translate(-265.852 -49.811)" fill="#fff" stroke="#fff" stroke-width="1.4"></path><path id="Path_42" data-name="Path 42" d="M408,66.522a2.856,2.856,0,0,0,0-5.713h-.328a2.856,2.856,0,0,0,0,5.713Z" transform="translate(-250.64 -49.811)" fill="#fff" stroke="#fff" stroke-width="1.4"></path><path id="Path_43" data-name="Path 43" d="M185.8,31.933H40.752a2.856,2.856,0,1,0,0,5.713H185.8a3.492,3.492,0,0,1,3.488,3.488V53.928H5.713V41.135A3.492,3.492,0,0,1,9.2,37.646H27.422a2.856,2.856,0,1,0,0-5.713H9.2a9.211,9.211,0,0,0-9.2,9.2V181.99a9.212,9.212,0,0,0,9.2,9.2H130.333l1.029,3.839a4.972,4.972,0,0,0,8.317,2.228l5.636-5.636,9.534,9.534a4.977,4.977,0,0,0,7.03,0l5.66-5.66a4.963,4.963,0,0,0,1.386-4.3H185.8a9.212,9.212,0,0,0,9.2-9.2V41.135a9.211,9.211,0,0,0-9.2-9.2ZM158.364,196.592l-9.533-9.534a4.977,4.977,0,0,0-7.03,0l-5.252,5.252-8.106-30.252,30.252,8.106-5.252,5.252a4.977,4.977,0,0,0,0,7.03l9.533,9.533Zm30.924-14.6a3.492,3.492,0,0,1-3.488,3.488H164.553l-6.547-6.547,5.636-5.636a4.974,4.974,0,0,0,1.221-1.985h7.408a6.673,6.673,0,0,0,6.665-6.665v-14.8a6.673,6.673,0,0,0-6.665-6.665H158.438a2.856,2.856,0,0,0,0,5.713h13.833a.954.954,0,0,1,.952.952v14.8a.953.953,0,0,1-.952.952h-9.464a5.01,5.01,0,0,0-1.393-.619l-32.733-8.771a4.971,4.971,0,0,0-6.089,6.088l.885,3.3H104.632a.953.953,0,0,1-.952-.952v-14.8a.953.953,0,0,1,.952-.952h40.476a2.856,2.856,0,0,0,0-5.713H104.632a6.673,6.673,0,0,0-6.665,6.665v14.8a6.673,6.673,0,0,0,6.665,6.665h20.374l3.8,14.168H9.2a3.492,3.492,0,0,1-3.488-3.488V59.641H189.287Z" transform="translate(0 -31.933)" fill="#fff" stroke="#fff" stroke-width="1.4"></path><path id="Path_44" data-name="Path 44" d="M46.941,235.814H99.995a4.766,4.766,0,0,0,4.761-4.761V140.877a4.766,4.766,0,0,0-4.761-4.761H46.941a4.766,4.766,0,0,0-4.761,4.761v40.138a2.856,2.856,0,1,0,5.713,0V141.829h51.15V230.1H86.826V211.235a4.766,4.766,0,0,0-4.761-4.761H64.871a4.766,4.766,0,0,0-4.761,4.761V230.1H47.893V194.345a2.856,2.856,0,0,0-5.713,0v36.709a4.766,4.766,0,0,0,4.761,4.76Zm18.882-23.627h15.29V230.1H65.823Z" transform="translate(-26.115 -96.437)" fill="#fff" stroke="#fff" stroke-width="1.4"></path><path id="Path_45" data-name="Path 45" d="M278.41,175.629H266.984a4.766,4.766,0,0,0-4.761,4.761v11.426a4.766,4.766,0,0,0,4.761,4.761H278.41a4.766,4.766,0,0,0,4.761-4.761V180.39A4.766,4.766,0,0,0,278.41,175.629Zm-.952,15.234h-9.521v-9.522h9.521Z" transform="translate(-162.353 -120.901)" fill="#fff" stroke="#fff" stroke-width="1.4"></path><path id="Path_46" data-name="Path 46" d="M278.41,250.187H266.984a4.766,4.766,0,0,0-4.761,4.761v11.426a4.766,4.766,0,0,0,4.761,4.761H278.41a4.766,4.766,0,0,0,4.761-4.761V254.948a4.766,4.766,0,0,0-4.761-4.761Zm-.952,15.234h-9.521V255.9h9.521Z" transform="translate(-162.353 -167.063)" fill="#fff" stroke="#fff" stroke-width="1.4"></path><path id="Path_47" data-name="Path 47" d="M352.209,175.629H340.783a4.766,4.766,0,0,0-4.761,4.761v11.426a4.766,4.766,0,0,0,4.761,4.761h11.426a4.766,4.766,0,0,0,4.761-4.761V180.39A4.766,4.766,0,0,0,352.209,175.629Zm-.952,15.234h-9.521v-9.522h9.521Z" transform="translate(-208.045 -120.901)" fill="#fff" stroke="#fff" stroke-width="1.4"></path><path id="Path_48" data-name="Path 48" d="M352.209,250.187H340.783a4.766,4.766,0,0,0-4.761,4.761v11.426a4.766,4.766,0,0,0,4.761,4.761h11.426a4.766,4.766,0,0,0,4.761-4.761V254.948a4.766,4.766,0,0,0-4.761-4.761Zm-.952,15.234h-9.521V255.9h9.521Z" transform="translate(-208.045 -167.063)" fill="#fff" stroke="#fff" stroke-width="1.4"></path><path id="Path_49" data-name="Path 49" d="M414.583,196.576h11.426a4.766,4.766,0,0,0,4.761-4.761V180.39a4.766,4.766,0,0,0-4.761-4.761H414.583a4.766,4.766,0,0,0-4.761,4.761v11.426A4.766,4.766,0,0,0,414.583,196.576Zm.952-15.234h9.521v9.522h-9.521Z" transform="translate(-253.737 -120.901)" fill="#fff" stroke="#fff" stroke-width="1.4"></path></g></g></g></svg>