<svg xmlns="http://www.w3.org/2000/svg" xmlns:xlink="http://www.w3.org/1999/xlink" width="200" height="200" viewBox="0 0 200 200"><defs><clipPath id="clip-Future-Proofed"><rect width="200" height="200"></rect></clipPath></defs><g id="Future-Proofed" clip-path="url(#clip-Future-Proofed)"><g id="building_11909675" transform="translate(-1.26 -2.72)"><g id="Group_6" data-name="Group 6" transform="translate(21.478 60.802)"><path id="Path_59" data-name="Path 59" d="M113.557,258.344a2.2,2.2,0,0,1-2.195-2.195V138.993a3.389,3.389,0,0,0-3.384-3.384H51.263a3.389,3.389,0,0,0-3.384,3.384V256.145a2.195,2.195,0,1,1-4.389,0V138.993a7.779,7.779,0,0,1,7.773-7.773h56.72a7.779,7.779,0,0,1,7.773,7.773V256.145a2.2,2.2,0,0,1-2.2,2.2Z" transform="translate(-43.49 -131.22)" fill="#fff" stroke="#fff" stroke-width="2"></path></g><g id="Group_7" data-name="Group 7" transform="translate(27.057 45.463)"><path id="Path_60" data-name="Path 60" d="M115.11,116a2.2,2.2,0,0,1-2.195-2.195V103.578A2.92,2.92,0,0,0,110,100.659H63.508a2.92,2.92,0,0,0-2.919,2.919V113.8a2.195,2.195,0,0,1-4.389,0V103.578a7.317,7.317,0,0,1,7.308-7.308H110a7.317,7.317,0,0,1,7.308,7.308V113.8A2.2,2.2,0,0,1,115.11,116Z" transform="translate(-56.2 -96.27)" fill="#fff" stroke="#fff" stroke-width="2"></path></g><g id="Group_8" data-name="Group 8" transform="translate(37.748 30.123)"><path id="Path_61" data-name="Path 61" d="M118.086,81.049a2.2,2.2,0,0,1-2.195-2.195V68.628a2.92,2.92,0,0,0-2.919-2.919H87.868a2.92,2.92,0,0,0-2.919,2.919V78.854a2.195,2.195,0,1,1-4.389,0V68.628a7.317,7.317,0,0,1,7.308-7.308h25.105a7.317,7.317,0,0,1,7.308,7.308V78.854a2.2,2.2,0,0,1-2.195,2.195Z" transform="translate(-80.56 -61.32)" fill="#fff" stroke="#fff" stroke-width="2"></path></g><g id="Group_9" data-name="Group 9" transform="translate(55.414 9.201)"><path id="Path_62" data-name="Path 62" d="M123,38.957a2.2,2.2,0,0,1-2.195-2.195V15.845a2.195,2.195,0,1,1,4.389,0V36.767A2.194,2.194,0,0,1,123,38.957Z" transform="translate(-120.81 -13.65)" fill="#fff" stroke="#fff" stroke-width="2"></path></g><g id="Group_10" data-name="Group 10" transform="translate(39.609 151.928)"><path id="Path_63" data-name="Path 63" d="M118.6,374.839a2.2,2.2,0,0,1-2.195-2.195V345.217a1.989,1.989,0,0,0-1.988-1.988H91.177a1.989,1.989,0,0,0-1.988,1.988v27.427a2.195,2.195,0,0,1-4.389,0V345.217a6.386,6.386,0,0,1,6.377-6.377h23.244a6.386,6.386,0,0,1,6.377,6.377v27.427A2.193,2.193,0,0,1,118.6,374.839Z" transform="translate(-84.8 -338.84)" fill="#fff" stroke="#fff" stroke-width="2"></path></g><g id="Group_11" data-name="Group 11" transform="translate(33.452 72.315)"><path id="Path_64" data-name="Path 64" d="M86.211,178.983H75.984a5.22,5.22,0,0,1-5.214-5.214v-11.1a5.22,5.22,0,0,1,5.214-5.214H86.211a5.22,5.22,0,0,1,5.214,5.214v11.1A5.22,5.22,0,0,1,86.211,178.983ZM75.984,161.835a.836.836,0,0,0-.825.825v11.1a.836.836,0,0,0,.825.825H86.211a.836.836,0,0,0,.825-.825v-11.1a.836.836,0,0,0-.825-.825Z" transform="translate(-70.77 -157.45)" fill="#fff" stroke="#fff" stroke-width="2"></path></g><g id="Group_12" data-name="Group 12" transform="translate(61.111 72.315)"><path id="Path_65" data-name="Path 65" d="M149.231,178.983H139a5.22,5.22,0,0,1-5.214-5.214v-11.1A5.22,5.22,0,0,1,139,157.45h10.226a5.22,5.22,0,0,1,5.214,5.214v11.1A5.215,5.215,0,0,1,149.231,178.983ZM139,161.835a.836.836,0,0,0-.825.825v11.1a.836.836,0,0,0,.825.825h10.226a.836.836,0,0,0,.825-.825v-11.1a.836.836,0,0,0-.825-.825Z" transform="translate(-133.79 -157.45)" fill="#fff" stroke="#fff" stroke-width="2"></path></g><g id="Group_13" data-name="Group 13" transform="translate(33.452 97.793)"><path id="Path_66" data-name="Path 66" d="M86.211,237.033H75.984a5.22,5.22,0,0,1-5.214-5.214v-11.1a5.22,5.22,0,0,1,5.214-5.214H86.211a5.22,5.22,0,0,1,5.214,5.214v11.1A5.22,5.22,0,0,1,86.211,237.033ZM75.984,219.885a.836.836,0,0,0-.825.825v11.1a.836.836,0,0,0,.825.825H86.211a.836.836,0,0,0,.825-.825v-11.1a.836.836,0,0,0-.825-.825Z" transform="translate(-70.77 -215.5)" fill="#fff" stroke="#fff" stroke-width="2"></path></g><g id="Group_14" data-name="Group 14" transform="translate(61.111 97.793)"><path id="Path_67" data-name="Path 67" d="M149.231,237.033H139a5.22,5.22,0,0,1-5.214-5.214v-11.1A5.22,5.22,0,0,1,139,215.5h10.226a5.22,5.22,0,0,1,5.214,5.214v11.1A5.215,5.215,0,0,1,149.231,237.033ZM139,219.885a.836.836,0,0,0-.825.825v11.1a.836.836,0,0,0,.825.825h10.226a.836.836,0,0,0,.825-.825v-11.1a.836.836,0,0,0-.825-.825Z" transform="translate(-133.79 -215.5)" fill="#fff" stroke="#fff" stroke-width="2"></path></g><g id="Group_15" data-name="Group 15" transform="translate(33.452 123.272)"><path id="Path_68" data-name="Path 68" d="M86.211,295.083H75.984a5.22,5.22,0,0,1-5.214-5.214v-11.1a5.22,5.22,0,0,1,5.214-5.214H86.211a5.22,5.22,0,0,1,5.214,5.214v11.1A5.22,5.22,0,0,1,86.211,295.083ZM75.984,277.935a.836.836,0,0,0-.825.825v11.1a.836.836,0,0,0,.825.825H86.211a.836.836,0,0,0,.825-.825v-11.1a.836.836,0,0,0-.825-.825Z" transform="translate(-70.77 -273.55)" fill="#fff" stroke="#fff" stroke-width="2"></path></g><g id="Group_16" data-name="Group 16" transform="translate(61.111 123.272)"><path id="Path_69" data-name="Path 69" d="M149.231,295.083H139a5.22,5.22,0,0,1-5.214-5.214v-11.1A5.22,5.22,0,0,1,139,273.55h10.226a5.22,5.22,0,0,1,5.214,5.214v11.1A5.215,5.215,0,0,1,149.231,295.083ZM139,277.935a.836.836,0,0,0-.825.825v11.1a.836.836,0,0,0,.825.825h10.226a.836.836,0,0,0,.825-.825v-11.1a.836.836,0,0,0-.825-.825Z" transform="translate(-133.79 -273.55)" fill="#fff" stroke="#fff" stroke-width="2"></path></g><g id="Group_17" data-name="Group 17" transform="translate(89.354 66.38)"><path id="Path_70" data-name="Path 70" d="M246.822,265.475a2.2,2.2,0,0,1-2.195-2.195V174.248c0-4.433-3.66-6.474-9.687-9.318l-.68-.32-34.867-16.5a2.195,2.195,0,0,1,1.878-3.968l35.542,16.823c5.719,2.695,12.2,5.754,12.2,13.286v89.027A2.2,2.2,0,0,1,246.822,265.475Z" transform="translate(-198.138 -143.928)" fill="#fff" stroke="#fff" stroke-width="2"></path></g><g id="Group_18" data-name="Group 18" transform="translate(135.843 97.064)"><path id="Path_71" data-name="Path 71" d="M352.742,304.7a2.2,2.2,0,0,1-2.195-2.195V244.158c0-4.429-3.66-6.474-9.682-9.318l-.685-.32-34.867-16.5a2.195,2.195,0,1,1,1.879-3.968l35.542,16.823c5.719,2.695,12.2,5.754,12.2,13.286V302.5a2.2,2.2,0,0,1-2.195,2.2Z" transform="translate(-304.058 -213.838)" fill="#fff" stroke="#fff" stroke-width="2"></path></g><g id="Group_19" data-name="Group 19" transform="translate(4.26 183.533)"><path id="Path_72" data-name="Path 72" d="M190.6,426.168H11.919a7.659,7.659,0,1,1,0-15.318H190.6a7.659,7.659,0,1,1,0,15.318ZM11.919,415.243a3.27,3.27,0,0,0,0,6.54H190.6a3.27,3.27,0,0,0,0-6.54Z" transform="translate(-4.26 -410.85)" fill="#fff" stroke="#fff" stroke-width="2"></path></g><g id="Group_20" data-name="Group 20" transform="translate(104.466 90.301)"><path id="Path_73" data-name="Path 73" d="M248.011,219.963H237.784a5.22,5.22,0,0,1-5.214-5.214v-11.1a5.22,5.22,0,0,1,5.214-5.214h10.226a5.22,5.22,0,0,1,5.214,5.214v11.1A5.22,5.22,0,0,1,248.011,219.963ZM237.78,202.815a.836.836,0,0,0-.825.825v11.1a.836.836,0,0,0,.825.825h10.226a.836.836,0,0,0,.825-.825v-11.1a.836.836,0,0,0-.825-.825Z" transform="translate(-232.57 -198.43)" fill="#fff" stroke="#fff" stroke-width="2"></path></g><g id="Group_21" data-name="Group 21" transform="translate(104.466 120.151)"><path id="Path_74" data-name="Path 74" d="M248.011,287.973H237.784a5.22,5.22,0,0,1-5.214-5.214v-11.1a5.22,5.22,0,0,1,5.214-5.214h10.226a5.22,5.22,0,0,1,5.214,5.214v11.1A5.22,5.22,0,0,1,248.011,287.973ZM237.78,270.82a.836.836,0,0,0-.825.825v11.1a.836.836,0,0,0,.825.825h10.226a.836.836,0,0,0,.825-.825v-11.1a.836.836,0,0,0-.825-.825Z" transform="translate(-232.57 -266.44)" fill="#fff" stroke="#fff" stroke-width="2"></path></g><g id="Group_22" data-name="Group 22" transform="translate(104.466 149.997)"><path id="Path_75" data-name="Path 75" d="M248.011,355.973H237.784a5.22,5.22,0,0,1-5.214-5.214v-11.1a5.22,5.22,0,0,1,5.214-5.214h10.226a5.22,5.22,0,0,1,5.214,5.214v11.1A5.22,5.22,0,0,1,248.011,355.973ZM237.78,338.825a.836.836,0,0,0-.825.825v11.1a.836.836,0,0,0,.825.825h10.226a.836.836,0,0,0,.825-.825v-11.1a.836.836,0,0,0-.825-.825Z" transform="translate(-232.57 -334.44)" fill="#fff" stroke="#fff" stroke-width="2"></path></g><g id="Group_23" data-name="Group 23" transform="translate(150.955 120.151)"><path id="Path_76" data-name="Path 76" d="M353.931,287.973H343.7a5.22,5.22,0,0,1-5.214-5.214v-11.1a5.22,5.22,0,0,1,5.214-5.214h10.226a5.22,5.22,0,0,1,5.214,5.214v11.1A5.221,5.221,0,0,1,353.931,287.973ZM343.7,270.82a.836.836,0,0,0-.825.825v11.1a.836.836,0,0,0,.825.825h10.226a.836.836,0,0,0,.825-.825v-11.1a.836.836,0,0,0-.825-.825Z" transform="translate(-338.49 -266.44)" fill="#fff" stroke="#fff" stroke-width="2"></path></g><g id="Group_24" data-name="Group 24" transform="translate(150.955 149.997)"><path id="Path_77" data-name="Path 77" d="M353.931,355.973H343.7a5.22,5.22,0,0,1-5.214-5.214v-11.1a5.22,5.22,0,0,1,5.214-5.214h10.226a5.22,5.22,0,0,1,5.214,5.214v11.1A5.22,5.22,0,0,1,353.931,355.973ZM343.7,338.825a.836.836,0,0,0-.825.825v11.1a.836.836,0,0,0,.825.825h10.226a.836.836,0,0,0,.825-.825v-11.1a.836.836,0,0,0-.825-.825Z" transform="translate(-338.49 -334.44)" fill="#fff" stroke="#fff" stroke-width="2"></path></g><g id="Group_25" data-name="Group 25" transform="translate(135.839 5.72)"><path id="Path_78" data-name="Path 78" d="M348.643,76.445H319.8a6.529,6.529,0,0,1-6.522-6.522c0-10.319-2.449-14.567-4.815-18.675-2.173-3.766-4.415-7.663-4.415-15.357a30.17,30.17,0,1,1,60.34,0c0,7.694-2.243,11.587-4.415,15.357-2.366,4.108-4.815,8.357-4.815,18.675A6.528,6.528,0,0,1,348.643,76.445ZM334.22,10.113a25.81,25.81,0,0,0-25.781,25.781c0,6.518,1.773,9.6,3.827,13.167,2.532,4.393,5.4,9.375,5.4,20.866A2.135,2.135,0,0,0,319.8,72.06h28.84a2.135,2.135,0,0,0,2.133-2.133c0-11.491,2.87-16.472,5.4-20.865C358.224,45.493,360,42.417,360,35.895A25.8,25.8,0,0,0,334.22,10.113Z" transform="translate(-304.05 -5.72)" fill="#fff" stroke="#fff" stroke-width="2"></path></g><g id="Group_26" data-name="Group 26" transform="translate(149.397 72.056)"><path id="Path_79" data-name="Path 79" d="M361.072,171.054H342.037a7.1,7.1,0,0,1-7.1-7.1v-4.9a2.195,2.195,0,1,1,4.389,0v4.9a2.712,2.712,0,0,0,2.708,2.708h19.035a2.712,2.712,0,0,0,2.708-2.708v-4.9a2.195,2.195,0,0,1,4.389,0v4.9A7.106,7.106,0,0,1,361.072,171.054Z" transform="translate(-334.94 -156.86)" fill="#fff" stroke="#fff" stroke-width="2"></path></g><g id="Group_27" data-name="Group 27" transform="translate(155.454 81.861)"><path id="Path_80" data-name="Path 80" d="M362.759,193.394h-6.922a7.1,7.1,0,0,1-7.1-7.1v-4.9a2.195,2.195,0,1,1,4.389,0v4.9a2.712,2.712,0,0,0,2.708,2.708h6.922a2.712,2.712,0,0,0,2.708-2.708v-4.9a2.195,2.195,0,1,1,4.389,0v4.9A7.106,7.106,0,0,1,362.759,193.394Z" transform="translate(-348.74 -179.2)" fill="#fff" stroke="#fff" stroke-width="2"></path></g><g id="Group_28" data-name="Group 28" transform="translate(163.815 50.137)"><path id="Path_81" data-name="Path 81" d="M369.985,133.228a2.2,2.2,0,0,1-2.195-2.195V109.115a2.195,2.195,0,0,1,4.389,0v21.919A2.2,2.2,0,0,1,369.985,133.228Z" transform="translate(-367.79 -106.92)" fill="#fff" stroke="#fff" stroke-width="2"></path></g><g id="Group_29" data-name="Group 29" transform="translate(154.874 32.256)"><path id="Path_82" data-name="Path 82" d="M358.555,88.45A11.135,11.135,0,1,1,369.69,77.315,11.147,11.147,0,0,1,358.555,88.45Zm0-17.881a6.746,6.746,0,1,0,6.746,6.746A6.754,6.754,0,0,0,358.555,70.569Z" transform="translate(-347.42 -66.18)" fill="#fff" stroke="#fff" stroke-width="2"></path></g><g id="Group_30" data-name="Group 30" transform="translate(55.414 151.923)"><path id="Path_83" data-name="Path 83" d="M123,374.833a2.2,2.2,0,0,1-2.195-2.195V341.025a2.195,2.195,0,0,1,4.389,0v31.614A2.2,2.2,0,0,1,123,374.833Z" transform="translate(-120.81 -338.83)" fill="#fff" stroke="#fff" stroke-width="2"></path></g><g id="Group_33" data-name="Group 33" transform="translate(48.567 165.753)"><g id="Group_31" data-name="Group 31"><path id="Path_84" data-name="Path 84" d="M107.4,378.679a2.2,2.2,0,0,1-2.195-2.195v-3.95a2.195,2.195,0,1,1,4.389,0v3.95A2.2,2.2,0,0,1,107.4,378.679Z" transform="translate(-105.21 -370.34)" fill="#fff" stroke="#fff" stroke-width="2"></path></g><g id="Group_32" data-name="Group 32" transform="translate(13.694)"><path id="Path_85" data-name="Path 85" d="M138.6,378.679a2.2,2.2,0,0,1-2.195-2.195v-3.95a2.195,2.195,0,0,1,4.389,0v3.95A2.2,2.2,0,0,1,138.6,378.679Z" transform="translate(-136.41 -370.34)" fill="#fff" stroke="#fff" stroke-width="2"></path></g></g></g></g></svg>