<svg xmlns="http://www.w3.org/2000/svg" xmlns:xlink="http://www.w3.org/1999/xlink" width="200" height="200" viewBox="0 0 200 200"><defs><clipPath id="clip-Guided_Journey"><rect width="200" height="200"></rect></clipPath></defs><g id="Guided_Journey" data-name="Guided Journey" clip-path="url(#clip-Guided_Journey)"><g id="verified_1247097" transform="translate(9.058 -0.002)"><path id="Path_12" data-name="Path 12" d="M3.109,226.208H127.425a4.169,4.169,0,0,0,4.169-4.169V128.533a4.167,4.167,0,0,0-4.169-4.168H85.218V81.782a4.168,4.168,0,0,0-4.169-4.169H71.579V66.087A4.167,4.167,0,0,0,67.41,61.92H45.571V45.847a4.168,4.168,0,0,0-8.337,0V61.92H16.75a4.167,4.167,0,0,0-4.169,4.168V77.613H3.109a4.168,4.168,0,0,0-4.168,4.169V222.038a4.169,4.169,0,0,0,4.168,4.169Zm120.148-93.5v85.167H85.218V132.7ZM53.5,217.871H45.571v-22.7H53.5Zm-16.267,0H30.661v-22.7h6.573ZM20.918,70.257H63.243v7.356H20.918ZM7.278,85.951h69.6v131.92H61.838V191a4.168,4.168,0,0,0-4.168-4.169H26.493A4.168,4.168,0,0,0,22.324,191v26.872H7.278Zm0,0" transform="translate(0 -26.206)" fill="#fff"></path><path id="Path_13" data-name="Path 13" d="M45.126,254.638H91.444a4.168,4.168,0,0,0,0-8.337H45.126a4.168,4.168,0,1,0,0,8.337Zm0,0" transform="translate(-26.418 -154.867)" fill="#fff"></path><path id="Path_14" data-name="Path 14" d="M45.126,312.032H91.444a4.168,4.168,0,0,0,0-8.337H45.126a4.168,4.168,0,1,0,0,8.337Zm0,0" transform="translate(-26.418 -190.955)" fill="#fff"></path><path id="Path_15" data-name="Path 15" d="M91.443,369.427a4.168,4.168,0,0,0,0-8.337H45.126a4.168,4.168,0,1,0,0,8.337Zm0,0" transform="translate(-26.418 -227.043)" fill="#fff"></path><path id="Path_16" data-name="Path 16" d="M45.126,197.243H91.444a4.168,4.168,0,0,0,0-8.337H45.126a4.168,4.168,0,1,0,0,8.337Zm0,0" transform="translate(-26.418 -118.778)" fill="#fff"></path><path id="Path_17" data-name="Path 17" d="M247.252,368.178h19.917a4.169,4.169,0,0,0,0-8.338H247.252a4.169,4.169,0,0,0,0,8.338Zm0,0" transform="translate(-153.51 -226.257)" fill="#fff"></path><path id="Path_18" data-name="Path 18" d="M247.252,415.591h19.917a4.168,4.168,0,0,0,0-8.337H247.252a4.168,4.168,0,1,0,0,8.337Zm0,0" transform="translate(-153.51 -256.07)" fill="#fff"></path><path id="Path_19" data-name="Path 19" d="M267.168,458.41H247.251a4.168,4.168,0,1,0,0,8.337h19.917a4.168,4.168,0,0,0,0-8.337Zm0,0" transform="translate(-153.509 -288.236)" fill="#fff"></path><path id="Path_20" data-name="Path 20" d="M247.252,317.022h19.917a4.169,4.169,0,0,0,0-8.338H247.252a4.169,4.169,0,0,0,0,8.338Zm0,0" transform="translate(-153.51 -194.092)" fill="#fff"></path><path id="Path_21" data-name="Path 21" d="M322.289,79.169A39.583,39.583,0,1,0,286.7,56.922a39.581,39.581,0,0,0,35.584,22.247ZM297.682,20.331a31.246,31.246,0,1,1-6.639,19.256,31.247,31.247,0,0,1,6.639-19.256Zm0,0" transform="translate(-178.424 0)" fill="#fff"></path><path id="Path_22" data-name="Path 22" d="M349.4,96.622a4.168,4.168,0,0,0,5.8.526l19.794-16.1a4.169,4.169,0,1,0-5.262-6.466L353.092,88.114l-5.857-6.858a4.168,4.168,0,1,0-6.34,5.41Zm0,0" transform="translate(-214.348 -46.276)" fill="#fff"></path></g></g></svg>