<svg xmlns="http://www.w3.org/2000/svg" xmlns:xlink="http://www.w3.org/1999/xlink" width="200" height="200" viewBox="0 0 200 200"><defs><clipPath id="clip-Hassle-Free_Process"><rect width="200" height="200"></rect></clipPath></defs><g id="Hassle-Free_Process" data-name="Hassle-Free Process" clip-path="url(#clip-Hassle-Free_Process)"><g id="iteration_5266307" transform="translate(0 -1.819)"><path id="Path_23" data-name="Path 23" d="M197.622,174.415l-15.573-15.573a5.84,5.84,0,0,0-8.259,8.259l5.6,5.6H142.376a84.237,84.237,0,0,0,16.478-12.837A83.731,83.731,0,0,0,114.217,18.23l6.074-5.1a5.84,5.84,0,0,0-7.508-8.947L95.913,18.342a5.84,5.84,0,0,0-.72,8.228L109.349,43.44a5.84,5.84,0,0,0,8.947-7.508l-5.033-6a72.638,72.638,0,1,1-38.041,3.072,5.908,5.908,0,0,0,3.932-6.416,5.845,5.845,0,0,0-7.748-4.624,83.636,83.636,0,0,0-30.927,137.9A84.252,84.252,0,0,0,56.957,172.7H6a5.949,5.949,0,0,0-6,5.558,5.84,5.84,0,0,0,5.833,6.122H179.395l-5.6,5.6a5.84,5.84,0,0,0,8.259,8.259l15.573-15.573a5.84,5.84,0,0,0,0-8.259Z" transform="translate(0 0)" fill="#fff"></path><path id="Path_24" data-name="Path 24" d="M141,183.953a44.772,44.772,0,1,0,44.772-44.772A44.823,44.823,0,0,0,141,183.953Zm44.772-33.092a33.092,33.092,0,1,1-33.092,33.092A33.13,33.13,0,0,1,185.772,150.861Z" transform="translate(-86.106 -83.273)" fill="#fff"></path><path id="Path_25" data-name="Path 25" d="M207.078,242.949a5.84,5.84,0,0,0,8.259,0l22.023-22.023a5.839,5.839,0,0,0-.2-8.453,5.949,5.949,0,0,0-8.171.312l-17.777,17.777-4.012-4.012a5.949,5.949,0,0,0-8.171-.312,5.84,5.84,0,0,0-.2,8.453Z" transform="translate(-120.37 -127.128)" fill="#fff"></path></g></g></svg>