<svg xmlns="http://www.w3.org/2000/svg" xmlns:xlink="http://www.w3.org/1999/xlink" width="200" height="200" viewBox="0 0 200 200"><defs><clipPath id="clip-High_Rental_Yields"><rect width="200" height="200"></rect></clipPath></defs><g id="High_Rental_Yields" data-name="High Rental Yields" clip-path="url(#clip-High_Rental_Yields)"><g id="analytics_1157365" transform="translate(3 19)"><path id="Path_17" data-name="Path 17" d="M190.15,203.124h-2.316V99.468a2.85,2.85,0,0,0-2.85-2.85h-20.79a2.851,2.851,0,0,0-2.85,2.85V203.124H153.4V123.832a2.85,2.85,0,0,0-2.85-2.85H129.766a2.851,2.851,0,0,0-2.85,2.85v79.292h-7.94V151.472a2.851,2.851,0,0,0-2.85-2.85H95.339a2.851,2.851,0,0,0-2.85,2.85v51.651h-13.5V91.826a2.851,2.851,0,0,0-2.85-2.85H69v-7.84a2.85,2.85,0,0,0-2.85-2.85H20.989a2.85,2.85,0,0,0-2.85,2.85v7.84H10.994a2.851,2.851,0,0,0-2.85,2.85v111.3H2.85a2.85,2.85,0,0,0,0,5.7h187.3a2.85,2.85,0,0,0,0-5.7Zm-23.1-100.805h15.088V203.124H167.046Zm-34.43,24.364h15.089v76.442H132.616Zm-34.427,27.64h15.086v48.8H98.189ZM23.839,83.986H63.3v4.989H23.839ZM50.59,203.124H35.313v-18.8H50.588Zm5.7,0V181.471a2.85,2.85,0,0,0-2.85-2.85H32.462a2.851,2.851,0,0,0-2.85,2.85v21.653H13.844V94.676H73.291V203.124Zm0,0" transform="translate(0 -46.41)" fill="#fff" stroke="#fff" stroke-width="1"></path><path id="Path_18" data-name="Path 18" d="M210.716,70.2a2.658,2.658,0,0,0,.3-.014c.658-.068,16.374-1.777,35.795-10.75a124.59,124.59,0,0,0,30.653-19.913,113.649,113.649,0,0,0,23.381-28.933l4.574,22.872a2.852,2.852,0,0,0,2.793,2.292,2.9,2.9,0,0,0,.561-.056,2.852,2.852,0,0,0,2.236-3.353L304.995,2.28a3.362,3.362,0,0,0-4.552-1.99L271.565,6.223a2.851,2.851,0,0,0,1.148,5.584l23.635-4.856a108.03,108.03,0,0,1-22.581,28.225,118.878,118.878,0,0,1-29.164,19c-18.592,8.625-34.026,10.324-34.18,10.34a2.85,2.85,0,0,0,.293,5.685Zm0,0" transform="translate(-123.228 0)" fill="#fff" stroke="#fff" stroke-width="1"></path><path id="Path_19" data-name="Path 19" d="M101.169,171.4H93.792a2.85,2.85,0,0,0,0,5.7h7.377a2.85,2.85,0,1,0,0-5.7Zm0,0" transform="translate(-53.913 -101.612)" fill="#fff" stroke="#fff" stroke-width="1"></path><path id="Path_20" data-name="Path 20" d="M101.169,210.57H93.792a2.85,2.85,0,0,0,0,5.7h7.377a2.85,2.85,0,1,0,0-5.7Zm0,0" transform="translate(-53.913 -124.832)" fill="#fff" stroke="#fff" stroke-width="1"></path><path id="Path_21" data-name="Path 21" d="M151.169,171.4h-7.377a2.85,2.85,0,1,0,0,5.7h7.377a2.85,2.85,0,0,0,0-5.7Zm0,0" transform="translate(-83.554 -101.612)" fill="#fff" stroke="#fff" stroke-width="1"></path><path id="Path_22" data-name="Path 22" d="M151.169,210.57h-7.377a2.85,2.85,0,1,0,0,5.7h7.377a2.85,2.85,0,0,0,0-5.7Zm0,0" transform="translate(-83.554 -124.832)" fill="#fff" stroke="#fff" stroke-width="1"></path><path id="Path_23" data-name="Path 23" d="M51.168,171.4H43.792a2.85,2.85,0,1,0,0,5.7h7.377a2.85,2.85,0,0,0,0-5.7Zm0,0" transform="translate(-24.271 -101.612)" fill="#fff" stroke="#fff" stroke-width="1"></path><path id="Path_24" data-name="Path 24" d="M51.168,210.57H43.792a2.85,2.85,0,1,0,0,5.7h7.377a2.85,2.85,0,0,0,0-5.7Zm0,0" transform="translate(-24.271 -124.832)" fill="#fff" stroke="#fff" stroke-width="1"></path><path id="Path_25" data-name="Path 25" d="M101.169,131.4H93.792a2.85,2.85,0,0,0,0,5.7h7.377a2.85,2.85,0,1,0,0-5.7Zm0,0" transform="translate(-53.913 -77.899)" fill="#fff" stroke="#fff" stroke-width="1"></path><path id="Path_26" data-name="Path 26" d="M151.169,131.4h-7.377a2.85,2.85,0,1,0,0,5.7h7.377a2.85,2.85,0,0,0,0-5.7Zm0,0" transform="translate(-83.554 -77.899)" fill="#fff" stroke="#fff" stroke-width="1"></path><path id="Path_27" data-name="Path 27" d="M51.168,131.4H43.792a2.85,2.85,0,1,0,0,5.7h7.377a2.85,2.85,0,0,0,0-5.7Zm0,0" transform="translate(-24.271 -77.899)" fill="#fff" stroke="#fff" stroke-width="1"></path><path id="Path_28" data-name="Path 28" d="M101.169,250.57H93.792a2.85,2.85,0,0,0,0,5.7h7.377a2.85,2.85,0,0,0,0-5.7Zm0,0" transform="translate(-53.913 -148.545)" fill="#fff" stroke="#fff" stroke-width="1"></path><path id="Path_29" data-name="Path 29" d="M151.169,250.57h-7.377a2.85,2.85,0,1,0,0,5.7h7.377a2.85,2.85,0,0,0,0-5.7Zm0,0" transform="translate(-83.554 -148.545)" fill="#fff" stroke="#fff" stroke-width="1"></path><path id="Path_30" data-name="Path 30" d="M51.168,250.57H43.792a2.85,2.85,0,0,0,0,5.7h7.377a2.85,2.85,0,0,0,0-5.7Zm0,0" transform="translate(-24.271 -148.545)" fill="#fff" stroke="#fff" stroke-width="1"></path><path id="Path_31" data-name="Path 31" d="M101.169,290.57H93.792a2.85,2.85,0,0,0,0,5.7h7.377a2.85,2.85,0,0,0,0-5.7Zm0,0" transform="translate(-53.913 -172.258)" fill="#fff" stroke="#fff" stroke-width="1"></path><path id="Path_32" data-name="Path 32" d="M151.169,290.57h-7.377a2.85,2.85,0,1,0,0,5.7h7.377a2.85,2.85,0,0,0,0-5.7Zm0,0" transform="translate(-83.554 -172.258)" fill="#fff" stroke="#fff" stroke-width="1"></path><path id="Path_33" data-name="Path 33" d="M51.168,290.57H43.792a2.85,2.85,0,0,0,0,5.7h7.377a2.85,2.85,0,0,0,0-5.7Zm0,0" transform="translate(-24.271 -172.258)" fill="#fff" stroke="#fff" stroke-width="1"></path></g></g></svg>