<svg xmlns="http://www.w3.org/2000/svg" width="783" height="82" viewBox="0 0 783 82" fill="none"><path d="M66.592 40.9158V40.7798C66.592 37.3798 65.9573 34.2065 64.688 31.2598C63.464 28.2678 61.7187 25.6838 59.452 23.5078C57.2307 21.2865 54.5787 19.5411 51.496 18.2718C48.4133 16.9571 45.036 16.2998 41.364 16.2998C37.692 16.2998 34.292 16.9571 31.164 18.2718C28.0813 19.5411 25.4067 21.3091 23.14 23.5758C20.9187 25.7971 19.1733 28.4038 17.904 31.3958C16.6347 34.3425 16 37.5158 16 40.9158V41.0518C16 44.4518 16.612 47.6478 17.836 50.6398C19.1053 53.5865 20.8507 56.1705 23.072 58.3918C25.3387 60.5678 28.0133 62.3131 31.096 63.6278C34.1787 64.8971 37.556 65.5318 41.228 65.5318C44.9 65.5318 48.2773 64.8971 51.36 63.6278C54.488 62.3131 57.1627 60.5451 59.384 58.3238C61.6507 56.0571 63.4187 53.4505 64.688 50.5038C65.9573 47.5118 66.592 44.3158 66.592 40.9158ZM55.644 41.0518C55.644 43.0918 55.2813 45.0185 54.556 46.8318C53.876 48.5998 52.9013 50.1638 51.632 51.5238C50.408 52.8838 48.912 53.9491 47.144 54.7198C45.376 55.4905 43.4493 55.8758 41.364 55.8758C39.2333 55.8758 37.284 55.4905 35.516 54.7198C33.7933 53.9038 32.2747 52.8158 30.96 51.4558C29.6907 50.0958 28.6933 48.5091 27.968 46.6958C27.288 44.8825 26.948 42.9558 26.948 40.9158V40.7798C26.948 38.7398 27.288 36.8358 27.968 35.0678C28.6933 33.2545 29.668 31.6678 30.892 30.3078C32.1613 28.9478 33.6573 27.8825 35.38 27.1118C37.148 26.3411 39.0973 25.9558 41.228 25.9558C43.3133 25.9558 45.24 26.3638 47.008 27.1798C48.776 27.9505 50.2947 29.0158 51.564 30.3758C52.8787 31.7358 53.876 33.3225 54.556 35.1358C55.2813 36.9491 55.644 38.8758 55.644 40.9158V41.0518Z" fill="black"></path><path d="M118.177 64.7158V17.1158H107.841V46.4238L85.5374 17.1158H75.8814V64.7158H86.2174V34.4558L109.269 64.7158H118.177Z" fill="black"></path><path d="M165.848 64.7158V55.3998H140.008V45.4038H162.448V36.0878H140.008V26.4318H165.508V17.1158H129.604V64.7158H165.848Z" fill="black"></path><path d="M236.005 51.6598V51.5238C236.005 48.3505 235.212 45.8798 233.626 44.1118C232.039 42.2985 229.863 40.8705 227.098 39.8278C227.959 39.3745 228.752 38.8305 229.477 38.1958C230.248 37.5611 230.905 36.8358 231.449 36.0198C232.039 35.1585 232.492 34.2065 232.809 33.1638C233.172 32.1211 233.354 30.9198 233.354 29.5598V29.4238C233.354 25.6611 231.948 22.6691 229.137 20.4478C226.372 18.2265 222.541 17.1158 217.645 17.1158H195.546V64.7158H218.189C220.864 64.7158 223.289 64.4438 225.465 63.8998C227.687 63.3558 229.568 62.5398 231.109 61.4518C232.696 60.3638 233.898 59.0038 234.714 57.3718C235.575 55.7398 236.005 53.8358 236.005 51.6598ZM222.949 31.3278C222.949 33.0958 222.27 34.3878 220.91 35.2038C219.55 35.9745 217.714 36.3598 215.402 36.3598H205.745V26.2958H216.081C218.303 26.2958 220.003 26.7265 221.182 27.5878C222.36 28.4038 222.949 29.6051 222.949 31.1918V31.3278ZM225.602 50.3678C225.602 52.1358 224.944 53.4505 223.63 54.3118C222.315 55.1278 220.501 55.5358 218.189 55.5358H205.745V45.0638H217.85C220.57 45.0638 222.542 45.5398 223.766 46.4918C224.99 47.3985 225.602 48.6451 225.602 50.2318V50.3678Z" fill="black"></path><path d="M285.76 64.7158L274.132 47.7158C277.169 46.5825 279.617 44.8145 281.476 42.4118C283.38 39.9638 284.332 36.8131 284.332 32.9598V32.8238C284.332 27.8825 282.745 24.0291 279.572 21.2638C276.444 18.4985 272.046 17.1158 266.38 17.1158H244.62V64.7158H255.092V49.4838H263.32L273.52 64.7158H285.76ZM273.724 33.5038C273.724 35.5438 273.021 37.1758 271.616 38.3998C270.256 39.6238 268.284 40.2358 265.7 40.2358H255.092V26.5678H265.496C268.08 26.5678 270.097 27.1345 271.548 28.2678C272.998 29.4011 273.724 31.1011 273.724 33.3678V33.5038Z" fill="black"></path><path d="M342.244 40.9158V40.7798C342.244 37.3798 341.61 34.2065 340.34 31.2598C339.116 28.2678 337.371 25.6838 335.104 23.5078C332.883 21.2865 330.231 19.5411 327.148 18.2718C324.066 16.9571 320.688 16.2998 317.016 16.2998C313.344 16.2998 309.944 16.9571 306.816 18.2718C303.734 19.5411 301.059 21.3091 298.792 23.5758C296.571 25.7971 294.826 28.4038 293.556 31.3958C292.287 34.3425 291.652 37.5158 291.652 40.9158V41.0518C291.652 44.4518 292.264 47.6478 293.488 50.6398C294.758 53.5865 296.503 56.1705 298.724 58.3918C300.991 60.5678 303.666 62.3131 306.748 63.6278C309.831 64.8971 313.208 65.5318 316.88 65.5318C320.552 65.5318 323.93 64.8971 327.012 63.6278C330.14 62.3131 332.815 60.5451 335.036 58.3238C337.303 56.0571 339.071 53.4505 340.34 50.5038C341.61 47.5118 342.244 44.3158 342.244 40.9158ZM331.296 41.0518C331.296 43.0918 330.934 45.0185 330.208 46.8318C329.528 48.5998 328.554 50.1638 327.284 51.5238C326.06 52.8838 324.564 53.9491 322.796 54.7198C321.028 55.4905 319.102 55.8758 317.016 55.8758C314.886 55.8758 312.936 55.4905 311.168 54.7198C309.446 53.9038 307.927 52.8158 306.612 51.4558C305.343 50.0958 304.346 48.5091 303.62 46.6958C302.94 44.8825 302.6 42.9558 302.6 40.9158V40.7798C302.6 38.7398 302.94 36.8358 303.62 35.0678C304.346 33.2545 305.32 31.6678 306.544 30.3078C307.814 28.9478 309.31 27.8825 311.032 27.1118C312.8 26.3411 314.75 25.9558 316.88 25.9558C318.966 25.9558 320.892 26.3638 322.66 27.1798C324.428 27.9505 325.947 29.0158 327.216 30.3758C328.531 31.7358 329.528 33.3225 330.208 35.1358C330.934 36.9491 331.296 38.8758 331.296 40.9158V41.0518Z" fill="black"></path><path d="M394.85 64.7158L374.586 37.3118L393.966 17.1158H381.318L362.006 37.9238V17.1158H351.534V64.7158H362.006V50.1638L367.514 44.4518L382.27 64.7158H394.85Z" fill="black"></path><path d="M437.45 64.7158V55.3998H411.61V45.4038H434.05V36.0878H411.61V26.4318H437.11V17.1158H401.206V64.7158H437.45Z" fill="black"></path><path d="M487.9 64.7158L476.272 47.7158C479.31 46.5825 481.758 44.8145 483.616 42.4118C485.52 39.9638 486.472 36.8131 486.472 32.9598V32.8238C486.472 27.8825 484.886 24.0291 481.712 21.2638C478.584 18.4985 474.187 17.1158 468.52 17.1158H446.76V64.7158H457.232V49.4838H465.46L475.66 64.7158H487.9ZM475.864 33.5038C475.864 35.5438 475.162 37.1758 473.756 38.3998C472.396 39.6238 470.424 40.2358 467.84 40.2358H457.232V26.5678H467.636C470.22 26.5678 472.238 27.1345 473.688 28.2678C475.139 29.4011 475.864 31.1011 475.864 33.3678V33.5038Z" fill="black"></path><path d="M559.536 57.9838V37.3118H538.864V46.3558H549.404V53.1558C546.729 55.0598 543.442 56.0118 539.544 56.0118C537.413 56.0118 535.464 55.6491 533.696 54.9238C531.973 54.1531 530.454 53.0878 529.14 51.7278C527.87 50.3678 526.873 48.7811 526.148 46.9678C525.468 45.1091 525.128 43.0918 525.128 40.9158V40.7798C525.128 38.7398 525.468 36.8358 526.148 35.0678C526.873 33.2545 527.848 31.6905 529.072 30.3758C530.341 29.0158 531.792 27.9505 533.424 27.1798C535.101 26.3638 536.892 25.9558 538.796 25.9558C540.156 25.9558 541.402 26.0691 542.536 26.2958C543.669 26.5225 544.712 26.8398 545.664 27.2478C546.661 27.6558 547.613 28.1545 548.52 28.7438C549.426 29.3331 550.333 30.0131 551.24 30.7838L557.836 22.8278C556.612 21.7851 555.342 20.8558 554.028 20.0398C552.713 19.2238 551.308 18.5438 549.812 17.9998C548.316 17.4558 546.684 17.0478 544.916 16.7758C543.193 16.4585 541.266 16.2998 539.136 16.2998C535.509 16.2998 532.177 16.9571 529.14 18.2718C526.102 19.5411 523.473 21.3091 521.252 23.5758C519.03 25.7971 517.285 28.4038 516.016 31.3958C514.792 34.3425 514.18 37.5158 514.18 40.9158V41.0518C514.18 44.5878 514.792 47.8518 516.016 50.8438C517.24 53.8358 518.94 56.4198 521.116 58.5958C523.337 60.7718 525.966 62.4718 529.004 63.6958C532.086 64.9198 535.486 65.5318 539.204 65.5318C543.556 65.5318 547.409 64.8065 550.764 63.3558C554.164 61.8598 557.088 60.0691 559.536 57.9838Z" fill="black"></path><path d="M610.752 64.7158L599.124 47.7158C602.161 46.5825 604.609 44.8145 606.468 42.4118C608.372 39.9638 609.324 36.8131 609.324 32.9598V32.8238C609.324 27.8825 607.737 24.0291 604.564 21.2638C601.436 18.4985 597.039 17.1158 591.372 17.1158H569.612V64.7158H580.084V49.4838H588.312L598.512 64.7158H610.752ZM598.716 33.5038C598.716 35.5438 598.013 37.1758 596.608 38.3998C595.248 39.6238 593.276 40.2358 590.692 40.2358H580.084V26.5678H590.488C593.072 26.5678 595.089 27.1345 596.54 28.2678C597.991 29.4011 598.716 31.1011 598.716 33.3678V33.5038Z" fill="black"></path><path d="M667.237 40.9158V40.7798C667.237 37.3798 666.602 34.2065 665.333 31.2598C664.109 28.2678 662.363 25.6838 660.097 23.5078C657.875 21.2865 655.223 19.5411 652.141 18.2718C649.058 16.9571 645.681 16.2998 642.009 16.2998C638.337 16.2998 634.937 16.9571 631.809 18.2718C628.726 19.5411 626.051 21.3091 623.785 23.5758C621.563 25.7971 619.818 28.4038 618.549 31.3958C617.279 34.3425 616.645 37.5158 616.645 40.9158V41.0518C616.645 44.4518 617.257 47.6478 618.481 50.6398C619.75 53.5865 621.495 56.1705 623.717 58.3918C625.983 60.5678 628.658 62.3131 631.741 63.6278C634.823 64.8971 638.201 65.5318 641.873 65.5318C645.545 65.5318 648.922 64.8971 652.005 63.6278C655.133 62.3131 657.807 60.5451 660.029 58.3238C662.295 56.0571 664.063 53.4505 665.333 50.5038C666.602 47.5118 667.237 44.3158 667.237 40.9158ZM656.289 41.0518C656.289 43.0918 655.926 45.0185 655.201 46.8318C654.521 48.5998 653.546 50.1638 652.277 51.5238C651.053 52.8838 649.557 53.9491 647.789 54.7198C646.021 55.4905 644.094 55.8758 642.009 55.8758C639.878 55.8758 637.929 55.4905 636.161 54.7198C634.438 53.9038 632.919 52.8158 631.605 51.4558C630.335 50.0958 629.338 48.5091 628.613 46.6958C627.933 44.8825 627.593 42.9558 627.593 40.9158V40.7798C627.593 38.7398 627.933 36.8358 628.613 35.0678C629.338 33.2545 630.312 31.6678 631.536 30.3078C632.806 28.9478 634.302 27.8825 636.025 27.1118C637.793 26.3411 639.742 25.9558 641.873 25.9558C643.958 25.9558 645.885 26.3638 647.653 27.1798C649.421 27.9505 650.939 29.0158 652.209 30.3758C653.523 31.7358 654.521 33.3225 655.201 35.1358C655.926 36.9491 656.289 38.8758 656.289 40.9158V41.0518Z" fill="black"></path><path d="M717.258 43.9758V17.1158H706.786V44.3838C706.786 48.1918 705.879 51.0478 704.066 52.9518C702.253 54.8558 699.737 55.8078 696.518 55.8078C693.299 55.8078 690.783 54.8331 688.97 52.8838C687.157 50.8891 686.25 47.9425 686.25 44.0438V17.1158H675.778V44.3158C675.778 51.3425 677.614 56.6238 681.286 60.1598C684.958 63.6958 689.99 65.4638 696.382 65.4638C699.555 65.4638 702.434 65.0331 705.018 64.1718C707.602 63.2651 709.801 61.9278 711.614 60.1598C713.427 58.3465 714.81 56.1025 715.762 53.4278C716.759 50.7531 717.258 47.6025 717.258 43.9758Z" fill="black"></path><path d="M765.596 33.7078V33.5718C765.596 31.1238 765.166 28.9025 764.304 26.9078C763.488 24.8678 762.287 23.1225 760.7 21.6718C759.159 20.2211 757.255 19.1105 754.988 18.3398C752.767 17.5238 750.228 17.1158 747.372 17.1158H727.924V64.7158H738.396V50.4358H746.352C749.027 50.4358 751.52 50.0958 753.832 49.4158C756.19 48.6905 758.23 47.6251 759.952 46.2198C761.72 44.8145 763.103 43.0691 764.1 40.9838C765.098 38.8985 765.596 36.4731 765.596 33.7078ZM754.988 33.9118C754.988 35.9518 754.263 37.6745 752.812 39.0798C751.362 40.4398 749.322 41.1198 746.692 41.1198H738.396V26.5678H746.488C749.118 26.5678 751.18 27.1798 752.676 28.4038C754.218 29.6278 754.988 31.4185 754.988 33.7758V33.9118Z" fill="black"></path></svg>