<svg xmlns="http://www.w3.org/2000/svg" xmlns:xlink="http://www.w3.org/1999/xlink" width="200" height="200" viewBox="0 0 200 200"><defs><clipPath id="clip-Luxury_Lifestyle"><rect width="200" height="200"></rect></clipPath></defs><g id="Luxury_Lifestyle" data-name="Luxury Lifestyle" clip-path="url(#clip-Luxury_Lifestyle)"><g id="diamond_1232078" transform="translate(3.553 3.748)"><path id="Path_57" data-name="Path 57" d="M124.833,17.293v24.7a9.25,9.25,0,0,0,9.8,8.561H239.143a9.252,9.252,0,0,0,9.8-8.561v-24.7a9.8,9.8,0,1,0-9.223-1.472l-23.743,17.31a4.407,4.407,0,0,1-5.124-.194L192.438,16.16a9.8,9.8,0,1,0-11.1,0l-18.41,16.789a4.409,4.409,0,0,1-5.123.194l-23.746-17.31a9.8,9.8,0,1,0-9.221,1.461ZM245.675,4.83A3.266,3.266,0,1,1,242.409,8.1,3.265,3.265,0,0,1,245.675,4.83Zm-58.789,0A3.266,3.266,0,1,1,183.62,8.1,3.266,3.266,0,0,1,186.886,4.83ZM153.947,38.422a10.9,10.9,0,0,0,13.393-.654l19.545-17.83,19.56,17.839a10.9,10.9,0,0,0,13.391.653l22.572-16.487V41.993c0,.959-1.4,2.029-3.266,2.029H134.63c-1.868,0-3.266-1.07-3.266-2.029V21.944ZM128.1,4.83A3.266,3.266,0,1,1,124.832,8.1,3.265,3.265,0,0,1,128.1,4.83Zm0,0" transform="translate(-90.459)" fill="#fff"></path><path id="Path_58" data-name="Path 58" d="M-.9,272.668a9.913,9.913,0,0,0,1.961,3.267l87.95,96.125a10.023,10.023,0,0,0,6.3,3.143,3.292,3.292,0,0,0,.827.117c.038,0,.074-.016.118-.016h.205a10.055,10.055,0,0,0,7.381-3.265l87.95-96.106a9.922,9.922,0,0,0-1.534-14.766L160.949,240.05a10.037,10.037,0,0,0-5.88-1.9H37.786a9.994,9.994,0,0,0-5.445,1.633h-.019c-.138.093-.287.161-.422.258L2.589,261.166a9.836,9.836,0,0,0-4.06,9.246,3.012,3.012,0,0,0-.082.4A3.185,3.185,0,0,0-.9,272.668Zm9.112,1.411h56.37l26.2,90.247Zm88.072,85.766-24.9-85.766h49.8Zm5.369,4.944,26.331-90.71h56.658Zm57.4-118.059,27.4,19.736a3.366,3.366,0,0,1,.981,1.082H134.447Zm-7.7-2.044-25.625,21.683-21.461-21.683Zm-33.639,22.862H74.927l21.5-21.5Zm-29.16-22.862L66.862,266.378l-25.65-21.692ZM6.407,266.467l27.241-19.625,24.469,20.706H5.431a3.35,3.35,0,0,1,.976-1.082Zm0,0" transform="translate(0 -181.067)" fill="#fff"></path></g></g></svg>