<svg xmlns="http://www.w3.org/2000/svg" xmlns:xlink="http://www.w3.org/1999/xlink" width="200" height="200" viewBox="0 0 200 200"><defs><clipPath id="clip-Post-Purchase_Support"><rect width="200" height="200"></rect></clipPath></defs><g id="Post-Purchase_Support" data-name="Post-Purchase Support" clip-path="url(#clip-Post-Purchase_Support)"><g id="insurance-company_4482197" transform="translate(1 1)"><path id="Path_50" data-name="Path 50" d="M184.42,121.538a17.259,17.259,0,0,0-5.786,1.034V67.613h3.172a3.172,3.172,0,0,0,3.172-3.172V51.753a3.172,3.172,0,0,0-3.172-3.172H140.57V45.409h3.172a3.172,3.172,0,0,0,3.172-3.172V29.548a3.172,3.172,0,0,0-3.172-3.172H137.16a36.219,36.219,0,0,0,.238-3.952V13.688a3.172,3.172,0,0,0-3.172-3.172,6.344,6.344,0,0,1-6.344-6.344A3.172,3.172,0,0,0,124.71,1H92.989a3.172,3.172,0,0,0-3.172,3.172,6.344,6.344,0,0,1-6.344,6.344A3.172,3.172,0,0,0,80.3,13.688v8.736a36.225,36.225,0,0,0,.238,3.952H73.957a3.172,3.172,0,0,0-3.172,3.172V42.237a3.172,3.172,0,0,0,3.172,3.172h3.172v3.172H35.892a3.172,3.172,0,0,0-3.172,3.172V64.441a3.172,3.172,0,0,0,3.172,3.172h3.172v60.1l-6.344,3.978V124.71a3.172,3.172,0,0,0-3.172-3.172H4.172A3.172,3.172,0,0,0,1,124.71v69.785a3.172,3.172,0,0,0,3.172,3.172H29.548a3.172,3.172,0,0,0,3.172-3.172v-5.031L40,182.187a22.969,22.969,0,0,1,24.771-5.075l17.243,6.9a58.6,58.6,0,0,0,50.753-3.749l58.334-34.03a13.246,13.246,0,0,0-6.677-24.691Zm-12.13,3.432-29.307,11.273a12.66,12.66,0,0,0-2.414-4.006V67.613h31.72Zm-53.925,2.912h-2.29a62.547,62.547,0,0,1-16.742-2.338V105.677h19.032Zm3.172-28.548H96.161a3.172,3.172,0,0,0-3.172,3.172v20.935c-.568-.222-1.148-.393-1.71-.634a53.251,53.251,0,0,0-7.806-2.639V92.989h50.753v35.33a12.61,12.61,0,0,0-3.172-.438H124.71V102.505A3.172,3.172,0,0,0,121.538,99.333Zm12.688-12.688H83.473V73.957h50.753Zm44.409-31.72v6.344H140.57V54.925ZM140.57,32.72v6.344h-7.182A36.38,36.38,0,0,0,135.9,32.72ZM86.645,16.457a12.733,12.733,0,0,0,9.113-9.113h26.182a12.65,12.65,0,0,0,3.128,5.576l-5.751,4.12a16.2,16.2,0,1,0,3.429,5.345l6.128-4.377-3.3-4.587a12.666,12.666,0,0,0,5.475,3.036v5.967a30.29,30.29,0,0,1-22.2,29.221,30.29,30.29,0,0,1-22.2-29.221Zm20.009,17.411,10.655-7.613a9.686,9.686,0,1,1-3.3-5.437l-11.042,7.889ZM77.129,32.72H81.8a36.38,36.38,0,0,0,2.512,6.344H77.129ZM88.406,45.409A36.577,36.577,0,0,0,108.072,58a3.143,3.143,0,0,0,1.535,0,36.577,36.577,0,0,0,19.667-12.593h4.952v22.2H83.473v-22.2ZM39.065,54.925H77.129v6.344H39.065ZM77.129,67.613V118.94a55.54,55.54,0,0,0-31.72,5.155V67.613ZM26.376,191.323H7.344V127.882H26.376ZM187.9,140.744l-58.334,34.027a52.136,52.136,0,0,1-45.2,3.34l-17.243-6.9a29.322,29.322,0,0,0-31.609,6.49l-2.791,2.791V139.155l11.343-7.09a48.9,48.9,0,0,1,44.726-3.445,68.877,68.877,0,0,0,27.286,5.6h14.978a6.344,6.344,0,0,1,0,12.688H89.817v6.344h41.237a12.688,12.688,0,0,0,12.46-10.42l36.989-14.23a10.9,10.9,0,0,1,3.917-.726,6.9,6.9,0,0,1,3.489,12.863Z" fill="#fff" stroke="#fff" stroke-width="0.2"></path><path id="Path_51" data-name="Path 51" d="M20.172,43.032H32.86a3.172,3.172,0,0,0,3.172-3.172V27.172A3.172,3.172,0,0,0,32.86,24H20.172A3.172,3.172,0,0,0,17,27.172V39.86A3.172,3.172,0,0,0,20.172,43.032Zm3.172-12.688h6.344v6.344H23.344Z" transform="translate(34.753 49.957)" fill="#fff" stroke="#fff" stroke-width="0.2"></path><path id="Path_52" data-name="Path 52" d="M20.172,50.032H32.86a3.172,3.172,0,0,0,3.172-3.172V34.172A3.172,3.172,0,0,0,32.86,31H20.172A3.172,3.172,0,0,0,17,34.172V46.86A3.172,3.172,0,0,0,20.172,50.032Zm3.172-12.688h6.344v6.344H23.344Z" transform="translate(34.753 65.161)" fill="#fff" stroke="#fff" stroke-width="0.2"></path><path id="Path_53" data-name="Path 53" d="M50.172,43.032H62.86a3.172,3.172,0,0,0,3.172-3.172V27.172A3.172,3.172,0,0,0,62.86,24H50.172A3.172,3.172,0,0,0,47,27.172V39.86A3.172,3.172,0,0,0,50.172,43.032Zm3.172-12.688h6.344v6.344H53.344Z" transform="translate(99.914 49.957)" fill="#fff" stroke="#fff" stroke-width="0.2"></path><path id="Path_54" data-name="Path 54" d="M50.172,50.032H62.86a3.172,3.172,0,0,0,3.172-3.172V34.172A3.172,3.172,0,0,0,62.86,31H50.172A3.172,3.172,0,0,0,47,34.172V46.86A3.172,3.172,0,0,0,50.172,50.032Zm3.172-12.688h6.344v6.344H53.344Z" transform="translate(99.914 65.161)" fill="#fff" stroke="#fff" stroke-width="0.2"></path></g></g></svg>