<svg xmlns="http://www.w3.org/2000/svg" xmlns:xlink="http://www.w3.org/1999/xlink" width="200" height="200" viewBox="0 0 200 200"><defs><clipPath id="clip-Safe_and_Stable"><rect width="200" height="200"></rect></clipPath></defs><g id="Safe_and_Stable" data-name="Safe and Stable" clip-path="url(#clip-Safe_and_Stable)"><g id="protection_1705416" transform="translate(13.499 -0.002)"><path id="Path_34" data-name="Path 34" d="M177.5,98.4a80.141,80.141,0,0,0,14.571-46.2V15.152a3.908,3.908,0,0,0-3.056-3.813L138.573.095a3.943,3.943,0,0,0-1.7,0L86.435,11.339a3.906,3.906,0,0,0-3.056,3.813V52.2A80.533,80.533,0,0,0,136.39,127.88a3.906,3.906,0,0,0,2.669,0A80.141,80.141,0,0,0,177.5,98.4Zm-39.775,21.639A72.721,72.721,0,0,1,91.191,52.2V18.283L137.723,7.91l46.533,10.373V52.2a72.719,72.719,0,0,1-46.533,67.839Zm0,0" transform="translate(-50.504 0)" fill="#fff"></path><path id="Path_35" data-name="Path 35" d="M200.163,49.846a3.905,3.905,0,0,0-3.056-3.813l-35.98-8.022a3.95,3.95,0,0,0-1.7,0l-35.982,8.022a3.906,3.906,0,0,0,1.7,7.625l35.132-7.831,32.076,7.15V75.3a58.278,58.278,0,0,1-32.076,52.051,58.294,58.294,0,0,1-31.892-47.412c-.069-.861-.117-1.73-.146-2.588a3.906,3.906,0,1,0-7.808.269c.034.972.089,1.959.165,2.933a66.1,66.1,0,0,0,38.042,54.68,3.9,3.9,0,0,0,3.282,0A66.087,66.087,0,0,0,200.164,75.3V49.846Zm0,0" transform="translate(-73.055 -23.106)" fill="#fff"></path><path id="Path_36" data-name="Path 36" d="M177.227,135.533a3.9,3.9,0,0,0,2.722,1.375q.13.009.261.009a3.906,3.906,0,0,0,2.62-1.009l28.32-25.623a3.906,3.906,0,0,0-5.241-5.794L180.584,127.4l-7.228-8.55a3.907,3.907,0,0,0-5.966,5.045Zm0,0" transform="translate(-101.136 -63.059)" fill="#fff"></path><path id="Path_37" data-name="Path 37" d="M54.326,248a12.517,12.517,0,0,0-20.792,1.265l-1.147-1.5a7.667,7.667,0,0,1-1.579-4.649v-35.24a13.057,13.057,0,0,0-26.056-1.233L.571,250.738A15.421,15.421,0,0,0,3.65,261.544l33.2,43.234v10.034a3.906,3.906,0,1,0,7.813,0V303.451a3.909,3.909,0,0,0-.809-2.379l-34-44.266a7.613,7.613,0,0,1-1.514-5.331l4.182-44.092A5.244,5.244,0,0,1,23,207.877v35.24a15.518,15.518,0,0,0,3.2,9.407l8.177,10.649.037.05,6.6,8.592a3.907,3.907,0,0,0,6.2-4.759l-6.619-8.62a4.747,4.747,0,0,1,.829-6.546,4.721,4.721,0,0,1,6.7.836l15.77,20.725a23.7,23.7,0,0,1,4.813,14.273v27.087a3.906,3.906,0,0,0,7.813,0V287.725a31.561,31.561,0,0,0-6.407-19Zm0,0" transform="translate(0 -118.717)" fill="#fff"></path><path id="Path_38" data-name="Path 38" d="M323.061,250.738l-4.182-44.093a13.057,13.057,0,0,0-26.056,1.233v35.24a7.677,7.677,0,0,1-1.579,4.649l-1.149,1.5A12.527,12.527,0,0,0,269.3,248l-15.77,20.725a31.564,31.564,0,0,0-6.409,19v27.086a3.906,3.906,0,0,0,7.813,0V287.725a23.7,23.7,0,0,1,4.813-14.273l15.77-20.725a4.725,4.725,0,0,1,7.529,5.71l-6.618,8.62a3.907,3.907,0,1,0,6.2,4.759l6.6-8.592.035-.046,8.18-10.652a15.534,15.534,0,0,0,3.2-9.409v-35.24a5.245,5.245,0,0,1,10.466-.494l4.182,44.092a7.606,7.606,0,0,1-1.5,5.312l-34.01,44.286a3.912,3.912,0,0,0-.807,2.38v11.36a3.906,3.906,0,0,0,7.813,0V304.779L320,261.525a15.415,15.415,0,0,0,3.065-10.786Zm0,0" transform="translate(-150.287 -118.717)" fill="#fff"></path><path id="Path_39" data-name="Path 39" d="M122.14,100.937a3.907,3.907,0,1,0-1.46-4.683,3.94,3.94,0,0,0,1.46,4.683Zm0,0" transform="translate(-73.071 -57.148)" fill="#fff"></path></g></g></svg>