<svg xmlns="http://www.w3.org/2000/svg" xmlns:xlink="http://www.w3.org/1999/xlink" width="200" height="200" viewBox="0 0 200 200"><defs><clipPath id="clip-Strategic_Hub"><rect width="200" height="200"></rect></clipPath></defs><g id="Strategic_Hub" data-name="Strategic Hub" clip-path="url(#clip-Strategic_Hub)"><g id="star_12351474" transform="translate(3.68 2.195)"><path id="Path_3" data-name="Path 3" d="M116.328,78.669A20.626,20.626,0,0,1,114,82.62c45.025,1.739,72.033,9.878,72.033,16.062,0,6.737-34,16.279-89.379,16.279S7.271,105.419,7.271,98.584c0-6.085,26.948-14.3,71.934-16.042a21.278,21.278,0,0,1-2.331-3.951C37.815,80.388,3.32,87.145,3.32,98.584c0,13.2,48.088,20.33,93.33,20.33s93.33-7.132,93.33-20.33c0-11.459-34.554-18.216-73.653-19.915Z" transform="translate(0 75.892)" fill="#fff" stroke="#fff" stroke-width="3"></path><path id="Path_4" data-name="Path 4" d="M86.609,176.55a1.976,1.976,0,0,1-1.284-.474C82.4,173.527,13.45,113.526,13.45,73.974a73.169,73.169,0,0,1,146.337,0c0,39.513-68.951,99.554-71.875,102.1a1.976,1.976,0,0,1-1.3.474Zm0-171.408A69.148,69.148,0,0,0,17.461,73.974c0,34.889,59.625,89.418,69.148,97.972,9.6-8.555,69.148-63.083,69.148-97.973A69.148,69.148,0,0,0,86.609,5.142Z" transform="translate(9.883 0)" fill="#fff" stroke="#fff" stroke-width="3"></path><path id="Path_5" data-name="Path 5" d="M77.8,120.219a55.635,55.635,0,1,1,55.951-55.635A55.635,55.635,0,0,1,77.8,120.219ZM77.8,12.9a51.635,51.635,0,1,1,0,.1Z" transform="translate(18.694 7.947)" fill="#fff" stroke="#fff" stroke-width="3"></path><path id="Path_6" data-name="Path 6" d="M54.587,87.183a8.416,8.416,0,1,1,8.436-8.416,8.416,8.416,0,0,1-8.436,8.416Zm0-12.862a4.465,4.465,0,1,0,4.485,4.445,4.465,4.465,0,0,0-4.485-4.445Z" transform="translate(41.827 67.852)" fill="#fff" stroke="#fff" stroke-width="3"></path><path id="Path_7" data-name="Path 7" d="M48.888,91.779a4.872,4.872,0,0,1-4.8-5.65l3.319-19.974a.889.889,0,0,0-.257-.81L32.589,51.278a4.86,4.86,0,0,1,2.647-8.2l20.033-3a.909.909,0,0,0,.672-.514l8.871-18.216a4.843,4.843,0,0,1,8.693-.04l9.068,18.137a.85.85,0,0,0,.672.474l20.073,2.825a4.84,4.84,0,0,1,2.746,8.239L91.622,65.206a.948.948,0,0,0-.257.79L94.9,85.951a4.86,4.86,0,0,1-7.014,5.156L69.909,81.762a.929.929,0,0,0-.85,0L51.279,91.285a4.741,4.741,0,0,1-2.391.494ZM59.5,41.2a4.8,4.8,0,0,1-3.635,2.667L35.829,46.892a.85.85,0,0,0-.731.612.869.869,0,0,0,.237.929L49.916,62.5a4.821,4.821,0,0,1,1.4,4.287L48,86.78a.909.909,0,0,0,1.324.948L67.2,78.206a4.88,4.88,0,0,1,4.524,0l17.979,9.325a.889.889,0,0,0,1.3-.948L87.473,66.629a4.84,4.84,0,0,1,1.383-4.307l14.442-14.2a.909.909,0,0,0,.217-.929.869.869,0,0,0-.731-.612L82.712,43.731A4.821,4.821,0,0,1,79.057,41.1L69.988,22.986a.9.9,0,0,0-1.62,0Z" transform="translate(27.195 17.381)" fill="#fff" stroke="#fff" stroke-width="3"></path></g></g></svg>