<svg xmlns="http://www.w3.org/2000/svg" xmlns:xlink="http://www.w3.org/1999/xlink" width="200" height="200" viewBox="0 0 200 200"><defs><clipPath id="clip-Tax-Free_Haven"><rect width="200" height="200"></rect></clipPath></defs><g id="Tax-Free_Haven" data-name="Tax-Free Haven" clip-path="url(#clip-Tax-Free_Haven)"><g id="tax-free_2403066" transform="translate(-2.303 1)"><g id="Group_5" data-name="Group 5" transform="translate(6.303)"><path id="Path_8" data-name="Path 8" d="M194.776,169.78H170.7l-.178-.087c-9.633-5.725-17.384-9.031-24.943-10.067a71.14,71.14,0,0,0-121.836-67.1,3.851,3.851,0,0,0,5.812,5.055,63.451,63.451,0,0,1,108.028,61.792c-6.948.5-13.624,2.788-19.984,5.516H90.9a17.265,17.265,0,0,0-14.366,26.832h-.965L29.589,178.524a16.884,16.884,0,0,0-2.3-.487,63.549,63.549,0,0,1-12.068-51.273,3.851,3.851,0,1,0-7.555-1.5,71.259,71.259,0,0,0,10.939,53.914,16.4,16.4,0,0,0-9.2,10.055A16.61,16.61,0,0,0,19.667,209.89l55.97,19.39a69.043,69.043,0,0,0,31.929,3.133l50.5-7.008h7.9v9.766a3.851,3.851,0,0,0,3.851,3.851h24.958a3.851,3.851,0,0,0,3.851-3.851v-61.54a3.853,3.853,0,0,0-3.853-3.851ZM157.8,217.7a3.863,3.863,0,0,0-.529.037l-50.761,7.044A61.311,61.311,0,0,1,78.157,222L22.186,202.611a8.752,8.752,0,0,1,5.28-16.682l46.5,13.344a3.857,3.857,0,0,0,1.062.149l43.367,0a3.86,3.86,0,0,0,0-7.719H90.9a9.556,9.556,0,1,1,0-19.111h27.5a3.849,3.849,0,0,0,1.54-.322c6.977-3.045,14.448-5.652,22.17-5.217,8.613.486,16.563,4.6,23.858,8.9V217.7Zm33.127,13.618H173.669V177.482h17.255Z" transform="translate(-6.303 -41.844)" fill="#fff"></path><path id="Path_9" data-name="Path 9" d="M184.851,18.277a3.851,3.851,0,0,0,3.851-3.851V3.851a3.851,3.851,0,0,0-7.7,0V14.426A3.851,3.851,0,0,0,184.851,18.277Z" transform="translate(-113.722)" fill="#fff"></path><path id="Path_10" data-name="Path 10" d="M308.5,49.716a3.851,3.851,0,0,0,5.422-.521L321.4,40.13a3.851,3.851,0,0,0-5.942-4.9l-7.477,9.066a3.852,3.852,0,0,0,.521,5.421Z" transform="translate(-191.256 -20.8)" fill="#fff"></path><path id="Path_11" data-name="Path 11" d="M52.221,49.2a3.851,3.851,0,0,0,5.942-4.9l-7.477-9.066a3.851,3.851,0,1,0-5.942,4.9Z" transform="translate(-29.398 -20.8)" fill="#fff"></path><path id="Path_12" data-name="Path 12" d="M228.641,168.768l-40.385,40.385a3.852,3.852,0,0,0,0,5.447,3.892,3.892,0,0,0,5.447,0l40.385-40.385a3.851,3.851,0,0,0-5.447-5.447Z" transform="translate(-117.489 -103.08)" fill="#fff"></path><path id="Path_13" data-name="Path 13" d="M193.351,163.917A11.049,11.049,0,1,0,204.4,174.966,11.062,11.062,0,0,0,193.351,163.917Zm0,14.4a3.347,3.347,0,1,1,3.347-3.347A3.35,3.35,0,0,1,193.351,178.313Z" transform="translate(-114.522 -100.79)" fill="#fff"></path><path id="Path_14" data-name="Path 14" d="M269.874,240.44a11.049,11.049,0,1,0,11.049,11.049A11.062,11.062,0,0,0,269.874,240.44Zm0,14.4a3.347,3.347,0,1,1,3.347-3.347A3.35,3.35,0,0,1,269.874,254.836Z" transform="translate(-161.575 -147.843)" fill="#fff"></path><path id="Path_15" data-name="Path 15" d="M89.5,212.263A14.276,14.276,0,0,0,103.765,198V176.265a14.276,14.276,0,0,0-14.26-14.26H84.327a14.276,14.276,0,0,0-14.26,14.26V198a14.276,14.276,0,0,0,14.26,14.26ZM77.769,198V176.265a6.565,6.565,0,0,1,6.558-6.558H89.5a6.565,6.565,0,0,1,6.558,6.558V198a6.565,6.565,0,0,1-6.558,6.558H84.327A6.565,6.565,0,0,1,77.769,198Z" transform="translate(-45.511 -99.615)" fill="#fff"></path><path id="Path_16" data-name="Path 16" d="M24.761,170.482a3.85,3.85,0,1,0,2.083-5.03,3.883,3.883,0,0,0-2.083,5.03Z" transform="translate(-17.476 -101.558)" fill="#fff"></path></g></g></g></svg>