<svg xmlns="http://www.w3.org/2000/svg" xmlns:xlink="http://www.w3.org/1999/xlink" width="200" height="200" viewBox="0 0 200 200"><defs><clipPath id="clip-Thriving_Tourism"><rect width="200" height="200"></rect></clipPath></defs><g id="Thriving_Tourism" data-name="Thriving Tourism" clip-path="url(#clip-Thriving_Tourism)"><g id="Thriving_Tourism-2" data-name="Thriving Tourism" transform="translate(0.001 -0.01)"><g id="Group_2" data-name="Group 2" transform="translate(-0.001 0.01)"><g id="Group_1" data-name="Group 1" transform="translate(0 0)"><path id="Path_1" data-name="Path 1" d="M189.414,10.609C174.555-4.249,146.88-3.256,115.28,12.143a3.912,3.912,0,0,0-1.785.883q-3.772,1.894-7.611,4.058a31.533,31.533,0,0,0,1.15-13.436A3.906,3.906,0,0,0,103.675.289,31.733,31.733,0,0,0,77.228,9.255L67.213,19.27,29.606,1.216a3.906,3.906,0,0,0-4.453.759L17.23,9.9a3.906,3.906,0,0,0,.389,5.865L47.7,38.781,28.761,57.722,13.9,56.382a3.909,3.909,0,0,0-3.113,1.128L1.21,67.083a3.906,3.906,0,0,0,1.729,6.529L13.67,76.556a89.972,89.972,0,0,0-1.731,39.159A127.327,127.327,0,0,0,1.754,144.609c-4.077,19.443-1.017,34.937,8.853,44.806,6.959,6.959,17,10.594,29.183,10.594q1.492,0,3.028-.073c12.259-.584,26.572-4.687,41.455-11.861a89.577,89.577,0,0,0,66.764-14.583,3.906,3.906,0,0,0-4.462-6.413,81.006,81.006,0,0,1-30.614,13.015v-8.6a15.89,15.89,0,0,0-15.872-15.872H81.871a8.069,8.069,0,0,1-8.06-8.06,11.266,11.266,0,0,0-11.253-11.252h-5.8a10.378,10.378,0,0,1,0-20.756H57.1a6.241,6.241,0,0,0,6.234-6.234,5.411,5.411,0,0,1,5.4-5.4H91.112a10.314,10.314,0,0,1,10.3,10.3v16.758a9.451,9.451,0,0,0,9.44,9.44h4.167a8.147,8.147,0,0,1,8.137,8.138v9.459a3.906,3.906,0,1,0,7.812,0v-9.459a15.968,15.968,0,0,0-15.95-15.95h-4.167a1.629,1.629,0,0,1-1.628-1.627V114.221A18.135,18.135,0,0,0,91.112,96.107H68.741A13.237,13.237,0,0,0,55.614,107.78a18.191,18.191,0,0,0,1.141,36.345h5.8A3.445,3.445,0,0,1,66,147.566a15.89,15.89,0,0,0,15.872,15.872h18.217a8.069,8.069,0,0,1,8.06,8.06v9.616c0,.046.005.09.007.136q-4.039.4-8.145.4a81.649,81.649,0,0,1-79.893-64.768A187.17,187.17,0,0,1,31.7,97.061l2.009,7.325a3.906,3.906,0,0,0,6.53,1.729l9.573-9.573a3.908,3.908,0,0,0,1.129-3.113L49.6,78.563,68.543,59.622,91.561,89.706a3.907,3.907,0,0,0,5.865.388l7.923-7.923a3.905,3.905,0,0,0,.759-4.452L88.054,40.111l7.181-7.181a188.463,188.463,0,0,1,21.606-12.818,81.26,81.26,0,0,1,43.671,25.082H152.75A21.93,21.93,0,0,0,130.845,67.1a2.782,2.782,0,0,1-2.779,2.779,15.752,15.752,0,0,0-15.734,15.734v2.572a15.752,15.752,0,0,0,15.734,15.734h30.555a3.906,3.906,0,0,0,0-7.812H128.066a7.931,7.931,0,0,1-7.922-7.922V85.614a7.931,7.931,0,0,1,7.922-7.922A10.6,10.6,0,0,0,138.657,67.1,14.109,14.109,0,0,1,152.75,53.007h11.314a3.887,3.887,0,0,0,2.206-.684,81.693,81.693,0,0,1,5.645,86.386,3.906,3.906,0,1,0,6.877,3.708,89.653,89.653,0,0,0,9.282-58.141c7.18-14.894,11.284-29.219,11.863-41.486C200.574,29.26,196.936,18.131,189.414,10.609ZM72.005,184.972c-24.656,9.932-45.124,9.67-55.874-1.08-10-10-9.178-26.008-6.731-37.678a108.721,108.721,0,0,1,5.645-18.135A89.526,89.526,0,0,0,72.005,184.972ZM18.449,103.507c-.049-1.164-.077-2.33-.077-3.5A81.779,81.779,0,0,1,21.2,78.622l5.882,1.614L29,87.214Q23.181,95.379,18.449,103.507Zm74.1-78.935-2.622,2.622,0,0-9.349,9.349A3.905,3.905,0,0,0,79.813,41L97.866,78.6l-2.812,2.812L72.037,51.332a3.907,3.907,0,0,0-5.865-.388L43.207,73.909a3.907,3.907,0,0,0-1.555,3.482L43,92.309l-3.529,3.529L34.032,76.024A3.907,3.907,0,0,0,31.3,73.291L11.485,67.856l3.529-3.53L29.932,65.67a3.909,3.909,0,0,0,3.482-1.554L56.38,41.15a3.906,3.906,0,0,0-.389-5.865L25.908,12.268l2.812-2.812L66.327,27.51a3.906,3.906,0,0,0,4.452-.759L82.752,14.778a23.894,23.894,0,0,1,16.74-6.947A23.9,23.9,0,0,1,92.544,24.572Zm92.424,47.44a89.555,89.555,0,0,0-56.927-56.973c24.275-9.761,44.96-9.794,55.848,1.095C194.639,26.883,194.9,47.355,184.968,72.012Z" transform="translate(0.001 -0.01)" fill="#fff"></path></g></g><g id="Group_4" data-name="Group 4" transform="translate(160.124 152.753)"><g id="Group_3" data-name="Group 3"><path id="Path_2" data-name="Path 2" d="M416.5,392.02a3.9,3.9,0,0,0-5.548.341l-.02.022a3.914,3.914,0,0,0,2.876,6.543,3.967,3.967,0,0,0,2.966-1.355A3.894,3.894,0,0,0,416.5,392.02Z" transform="translate(-409.905 -391.019)" fill="#fff"></path></g></g></g></g></svg>