<svg xmlns="http://www.w3.org/2000/svg" xmlns:xlink="http://www.w3.org/1999/xlink" width="200" height="200" viewBox="0 0 200 200"><defs><clipPath id="clip-Top-Tier_Infrastructure"><rect width="200" height="200"></rect></clipPath></defs><g id="Top-Tier_Infrastructure" data-name="Top-Tier Infrastructure" clip-path="url(#clip-Top-Tier_Infrastructure)"><g id="digital-transformation_7521574" transform="translate(0.509 -1)"><path id="Path_40" data-name="Path 40" d="M118.677,128.774h35.484a3.226,3.226,0,0,0,3.226-3.226V73.935a3.226,3.226,0,0,0-3.226-3.226H118.677V35.226A3.226,3.226,0,0,0,115.452,32H50.935a3.226,3.226,0,0,0-3.226,3.226V70.71H12.226A3.226,3.226,0,0,0,9,73.935v51.613a3.226,3.226,0,0,0,3.226,3.226H47.71A3.226,3.226,0,0,0,50.935,132h64.516A3.226,3.226,0,0,0,118.677,128.774Zm0-51.613h32.258v45.161H118.677ZM47.71,122.323H15.452V77.161H47.71Zm45.161,3.226H73.516V109.419H92.871Zm19.355,0h-12.9V106.194a3.226,3.226,0,0,0-3.226-3.226H70.29a3.226,3.226,0,0,0-3.226,3.226v19.355h-12.9v-87.1h58.065Z" transform="translate(16.713 69)" fill="#fff"></path><path id="Path_41" data-name="Path 41" d="M28.226,56.355h12.9a3.226,3.226,0,0,0,3.226-3.226v-12.9A3.226,3.226,0,0,0,41.129,37h-12.9A3.226,3.226,0,0,0,25,40.226v12.9A3.226,3.226,0,0,0,28.226,56.355Zm3.226-12.9H37.9V49.9H31.452Z" transform="translate(52.326 80.129)" fill="#fff"></path><path id="Path_42" data-name="Path 42" d="M36.226,56.355h12.9a3.226,3.226,0,0,0,3.226-3.226v-12.9A3.226,3.226,0,0,0,49.129,37h-12.9A3.226,3.226,0,0,0,33,40.226v12.9A3.226,3.226,0,0,0,36.226,56.355Zm3.226-12.9H45.9V49.9H39.452Z" transform="translate(70.132 80.129)" fill="#fff"></path><path id="Path_43" data-name="Path 43" d="M28.226,64.355h12.9a3.226,3.226,0,0,0,3.226-3.226v-12.9A3.226,3.226,0,0,0,41.129,45h-12.9A3.226,3.226,0,0,0,25,48.226v12.9A3.226,3.226,0,0,0,28.226,64.355Zm3.226-12.9H37.9V57.9H31.452Z" transform="translate(52.326 97.936)" fill="#fff"></path><path id="Path_44" data-name="Path 44" d="M36.226,64.355h12.9a3.226,3.226,0,0,0,3.226-3.226v-12.9A3.226,3.226,0,0,0,49.129,45h-12.9A3.226,3.226,0,0,0,33,48.226v12.9A3.226,3.226,0,0,0,36.226,64.355Zm3.226-12.9H45.9V57.9H39.452Z" transform="translate(70.132 97.936)" fill="#fff"></path><path id="Path_45" data-name="Path 45" d="M13,49.5h6.452v6.452H13Z" transform="translate(25.616 107.952)" fill="#fff"></path><path id="Path_46" data-name="Path 46" d="M17,49.5h6.452v6.452H17Z" transform="translate(34.52 107.952)" fill="#fff"></path><path id="Path_47" data-name="Path 47" d="M13,54.5h6.452v6.452H13Z" transform="translate(25.616 119.081)" fill="#fff"></path><path id="Path_48" data-name="Path 48" d="M17,54.5h6.452v6.452H17Z" transform="translate(34.52 119.081)" fill="#fff"></path><path id="Path_49" data-name="Path 49" d="M45,49.5h6.452v6.452H45Z" transform="translate(96.842 107.952)" fill="#fff"></path><path id="Path_50" data-name="Path 50" d="M49,49.5h6.452v6.452H49Z" transform="translate(105.745 107.952)" fill="#fff"></path><path id="Path_51" data-name="Path 51" d="M45,54.5h6.452v6.452H45Z" transform="translate(96.842 119.081)" fill="#fff"></path><path id="Path_52" data-name="Path 52" d="M49,54.5h6.452v6.452H49Z" transform="translate(105.745 119.081)" fill="#fff"></path><path id="Path_53" data-name="Path 53" d="M39.121,20.143l-4.161-4.9a70.968,70.968,0,0,0-19.645,81.1l5.935-2.452A64.516,64.516,0,0,1,39.121,20.143Z" transform="translate(18.851 31.695)" fill="#fff"></path><path id="Path_54" data-name="Path 54" d="M41.356,30.6a9.677,9.677,0,1,0-12.9,9.1v7.032A3.226,3.226,0,0,0,30.42,49.7l20.613,8.839V78.987h6.452V64.728L78.453,52.761a3.226,3.226,0,0,0,1.613-2.806V42.922a9.677,9.677,0,1,0-6.452,0v5.161L57.485,57.309V26.793a9.677,9.677,0,1,0-6.452,0V51.5L34.9,44.6V39.7a9.677,9.677,0,0,0,6.452-9.1Zm35.484,0a3.226,3.226,0,1,1-3.226,3.226A3.226,3.226,0,0,1,76.84,30.6ZM54.259,14.47A3.226,3.226,0,1,1,51.033,17.7,3.226,3.226,0,0,1,54.259,14.47ZM31.678,33.825A3.226,3.226,0,1,1,34.9,30.6,3.226,3.226,0,0,1,31.678,33.825Z" transform="translate(45.648 15.562)" fill="#fff"></path><path id="Path_55" data-name="Path 55" d="M5.939,87.419l7.581,2.516a86.859,86.859,0,0,0,0,22.161l-7.581,2.484A6.452,6.452,0,0,0,1.81,122.71l3.774,11.548,6.129-2L7.939,120.71l7.581-2.484a6.452,6.452,0,0,0,4.387-7A82.1,82.1,0,0,1,19.261,101a83,83,0,0,1,.645-10.258,6.452,6.452,0,0,0-4.387-6.968L7.939,81.29l6-18.419,7.581,2.645A6.452,6.452,0,0,0,29.2,62.29,78.548,78.548,0,0,1,41.229,45.71a6.452,6.452,0,0,0,.613-8.258L37.165,31,52.81,19.645,57.52,26.1a6.452,6.452,0,0,0,8,1.968,79.387,79.387,0,0,1,19.355-6.452A6.452,6.452,0,0,0,90.2,15.161V7.452h19.355v7.968a6.452,6.452,0,0,0,5.323,6.452,79.484,79.484,0,0,1,19.516,6.452,6.452,6.452,0,0,0,7.968-2.032l4.677-6.452,15.645,11.355-4.645,6.452a6.452,6.452,0,0,0,.516,8.29,78.58,78.58,0,0,1,12.1,16.355,6.452,6.452,0,0,0,7.645,3.226l7.581-2.452,6,18.387-7.581,2.484a6.452,6.452,0,0,0-4.387,7A82.1,82.1,0,0,1,180.552,101a83.006,83.006,0,0,1-.645,10.258,6.452,6.452,0,0,0,4.387,6.968l7.581,2.484L188.1,132.258l6.129,2L198,122.71a6.452,6.452,0,0,0-4.129-8.129l-7.581-2.516a86.859,86.859,0,0,0,0-22.161l7.581-2.484A6.452,6.452,0,0,0,198,79.29L192,60.9a6.452,6.452,0,0,0-8.226-4.161l-7.484,2.323a86.388,86.388,0,0,0-12.9-17.935l4.677-6.452a6.489,6.489,0,0,0-1.548-8.871L150.874,14.419a6.452,6.452,0,0,0-9.032,1.419l-4.71,6.452a83.258,83.258,0,0,0-21.1-6.871V7.452A6.452,6.452,0,0,0,109.584,1H90.229a6.452,6.452,0,0,0-6.452,6.452v7.968A84.1,84.1,0,0,0,62.649,22.29l-4.677-6.419a6.422,6.422,0,0,0-9.032-1.452L33.294,25.774a6.466,6.466,0,0,0-1.419,9.032l4.645,6.452a86.774,86.774,0,0,0-12.9,17.968l-7.581-2.484a6.452,6.452,0,0,0-8.1,4.161l-6,18.387a6.452,6.452,0,0,0,4,8.129Z" transform="translate(0 0)" fill="#fff"></path><path id="Path_56" data-name="Path 56" d="M68.677,96.337a70.968,70.968,0,0,0-19.645-81.1L45,20.143A64.516,64.516,0,0,1,62.742,93.885Z" transform="translate(96.842 31.695)" fill="#fff"></path></g></g></svg>